<mxfile host="app.diagrams.net" modified="2023-11-23T07:43:25.086Z" agent="Mozilla/5.0 (Windows NT 10.0; Win64; x64) AppleWebKit/537.36 (KHTML, like Gecko) Chrome/119.0.0.0 Safari/537.36" etag="hsHyo_Z2_EcGl8Kxq-81" version="22.1.3" type="device" pages="3">
  <diagram name="BT1" id="m06JEJhV0v_ANx0qQexP">
    <mxGraphModel dx="1290" dy="534" grid="1" gridSize="10" guides="1" tooltips="1" connect="1" arrows="1" fold="1" page="1" pageScale="1" pageWidth="827" pageHeight="1169" math="0" shadow="0">
      <root>
        <mxCell id="0" />
        <mxCell id="1" parent="0" />
        <mxCell id="LiszowRizHazjW7_zklP-1" value="" style="edgeStyle=orthogonalEdgeStyle;rounded=0;orthogonalLoop=1;jettySize=auto;html=1;" edge="1" parent="1" source="LiszowRizHazjW7_zklP-2" target="LiszowRizHazjW7_zklP-4">
          <mxGeometry relative="1" as="geometry" />
        </mxCell>
        <mxCell id="LiszowRizHazjW7_zklP-2" value="start" style="ellipse;whiteSpace=wrap;html=1;" vertex="1" parent="1">
          <mxGeometry x="110" y="10" width="120" height="80" as="geometry" />
        </mxCell>
        <mxCell id="LiszowRizHazjW7_zklP-3" value="" style="edgeStyle=orthogonalEdgeStyle;rounded=0;orthogonalLoop=1;jettySize=auto;html=1;" edge="1" parent="1" source="LiszowRizHazjW7_zklP-4" target="LiszowRizHazjW7_zklP-9">
          <mxGeometry relative="1" as="geometry" />
        </mxCell>
        <mxCell id="LiszowRizHazjW7_zklP-4" value="input n" style="shape=parallelogram;perimeter=parallelogramPerimeter;whiteSpace=wrap;html=1;fixedSize=1;" vertex="1" parent="1">
          <mxGeometry x="110" y="180" width="120" height="60" as="geometry" />
        </mxCell>
        <mxCell id="LiszowRizHazjW7_zklP-5" value="" style="edgeStyle=orthogonalEdgeStyle;rounded=0;orthogonalLoop=1;jettySize=auto;html=1;" edge="1" parent="1" source="LiszowRizHazjW7_zklP-6" target="LiszowRizHazjW7_zklP-11">
          <mxGeometry relative="1" as="geometry" />
        </mxCell>
        <mxCell id="LiszowRizHazjW7_zklP-6" value="i&amp;lt;n" style="rhombus;whiteSpace=wrap;html=1;" vertex="1" parent="1">
          <mxGeometry x="130" y="450" width="80" height="80" as="geometry" />
        </mxCell>
        <mxCell id="LiszowRizHazjW7_zklP-7" value="" style="edgeStyle=orthogonalEdgeStyle;rounded=0;orthogonalLoop=1;jettySize=auto;html=1;" edge="1" parent="1" source="LiszowRizHazjW7_zklP-9" target="LiszowRizHazjW7_zklP-6">
          <mxGeometry relative="1" as="geometry" />
        </mxCell>
        <mxCell id="LiszowRizHazjW7_zklP-8" style="edgeStyle=orthogonalEdgeStyle;rounded=0;orthogonalLoop=1;jettySize=auto;html=1;entryX=0;entryY=0.5;entryDx=0;entryDy=0;" edge="1" parent="1" source="LiszowRizHazjW7_zklP-9" target="LiszowRizHazjW7_zklP-17">
          <mxGeometry relative="1" as="geometry">
            <Array as="points">
              <mxPoint x="40" y="350" />
              <mxPoint x="40" y="890" />
            </Array>
          </mxGeometry>
        </mxCell>
        <mxCell id="LiszowRizHazjW7_zklP-9" value="i=0" style="whiteSpace=wrap;html=1;" vertex="1" parent="1">
          <mxGeometry x="110" y="320" width="120" height="60" as="geometry" />
        </mxCell>
        <mxCell id="LiszowRizHazjW7_zklP-10" value="" style="edgeStyle=orthogonalEdgeStyle;rounded=0;orthogonalLoop=1;jettySize=auto;html=1;" edge="1" parent="1" source="LiszowRizHazjW7_zklP-11" target="LiszowRizHazjW7_zklP-13">
          <mxGeometry relative="1" as="geometry" />
        </mxCell>
        <mxCell id="LiszowRizHazjW7_zklP-11" value="input a[i]" style="shape=parallelogram;perimeter=parallelogramPerimeter;whiteSpace=wrap;html=1;fixedSize=1;" vertex="1" parent="1">
          <mxGeometry x="110" y="590" width="120" height="60" as="geometry" />
        </mxCell>
        <mxCell id="LiszowRizHazjW7_zklP-12" style="edgeStyle=orthogonalEdgeStyle;rounded=0;orthogonalLoop=1;jettySize=auto;html=1;entryX=1;entryY=0.5;entryDx=0;entryDy=0;" edge="1" parent="1" source="LiszowRizHazjW7_zklP-13" target="LiszowRizHazjW7_zklP-9">
          <mxGeometry relative="1" as="geometry">
            <Array as="points">
              <mxPoint x="360" y="720" />
              <mxPoint x="360" y="350" />
            </Array>
          </mxGeometry>
        </mxCell>
        <mxCell id="LiszowRizHazjW7_zklP-13" value="i++" style="rounded=0;whiteSpace=wrap;html=1;" vertex="1" parent="1">
          <mxGeometry x="110" y="690" width="120" height="60" as="geometry" />
        </mxCell>
        <mxCell id="LiszowRizHazjW7_zklP-14" value="true" style="text;html=1;strokeColor=none;fillColor=none;align=center;verticalAlign=middle;whiteSpace=wrap;rounded=0;" vertex="1" parent="1">
          <mxGeometry x="110" y="400" width="60" height="30" as="geometry" />
        </mxCell>
        <mxCell id="LiszowRizHazjW7_zklP-15" value="" style="edgeStyle=orthogonalEdgeStyle;rounded=0;orthogonalLoop=1;jettySize=auto;html=1;" edge="1" parent="1" source="LiszowRizHazjW7_zklP-17" target="LiszowRizHazjW7_zklP-20">
          <mxGeometry relative="1" as="geometry" />
        </mxCell>
        <mxCell id="LiszowRizHazjW7_zklP-16" value="" style="edgeStyle=orthogonalEdgeStyle;rounded=0;orthogonalLoop=1;jettySize=auto;html=1;" edge="1" parent="1" source="LiszowRizHazjW7_zklP-17" target="LiszowRizHazjW7_zklP-45">
          <mxGeometry relative="1" as="geometry" />
        </mxCell>
        <mxCell id="LiszowRizHazjW7_zklP-17" value="case 1" style="rhombus;whiteSpace=wrap;html=1;" vertex="1" parent="1">
          <mxGeometry x="130" y="850" width="80" height="80" as="geometry" />
        </mxCell>
        <mxCell id="LiszowRizHazjW7_zklP-18" value="false" style="text;html=1;strokeColor=none;fillColor=none;align=center;verticalAlign=middle;whiteSpace=wrap;rounded=0;" vertex="1" parent="1">
          <mxGeometry x="30" y="320" width="60" height="30" as="geometry" />
        </mxCell>
        <mxCell id="LiszowRizHazjW7_zklP-19" value="" style="edgeStyle=orthogonalEdgeStyle;rounded=0;orthogonalLoop=1;jettySize=auto;html=1;" edge="1" parent="1" source="LiszowRizHazjW7_zklP-20" target="LiszowRizHazjW7_zklP-23">
          <mxGeometry relative="1" as="geometry" />
        </mxCell>
        <mxCell id="LiszowRizHazjW7_zklP-20" value="i=0" style="rounded=0;whiteSpace=wrap;html=1;" vertex="1" parent="1">
          <mxGeometry x="250" y="860" width="120" height="60" as="geometry" />
        </mxCell>
        <mxCell id="LiszowRizHazjW7_zklP-21" value="" style="edgeStyle=orthogonalEdgeStyle;rounded=0;orthogonalLoop=1;jettySize=auto;html=1;" edge="1" parent="1" source="LiszowRizHazjW7_zklP-23">
          <mxGeometry relative="1" as="geometry">
            <mxPoint x="550" y="890" as="targetPoint" />
          </mxGeometry>
        </mxCell>
        <mxCell id="LiszowRizHazjW7_zklP-22" style="edgeStyle=orthogonalEdgeStyle;rounded=0;orthogonalLoop=1;jettySize=auto;html=1;" edge="1" parent="1" source="LiszowRizHazjW7_zklP-23">
          <mxGeometry relative="1" as="geometry">
            <mxPoint x="1550" y="1060" as="targetPoint" />
            <Array as="points">
              <mxPoint x="465" y="1010" />
              <mxPoint x="466" y="1090" />
            </Array>
          </mxGeometry>
        </mxCell>
        <mxCell id="LiszowRizHazjW7_zklP-23" value="i&amp;lt;n" style="rhombus;whiteSpace=wrap;html=1;" vertex="1" parent="1">
          <mxGeometry x="425" y="850" width="80" height="80" as="geometry" />
        </mxCell>
        <mxCell id="LiszowRizHazjW7_zklP-24" value="" style="edgeStyle=orthogonalEdgeStyle;rounded=0;orthogonalLoop=1;jettySize=auto;html=1;" edge="1" parent="1" source="LiszowRizHazjW7_zklP-25" target="LiszowRizHazjW7_zklP-28">
          <mxGeometry relative="1" as="geometry" />
        </mxCell>
        <mxCell id="LiszowRizHazjW7_zklP-25" value="j = i-1&lt;br&gt;temp = a[i]" style="whiteSpace=wrap;html=1;rounded=0;" vertex="1" parent="1">
          <mxGeometry x="550" y="860" width="120" height="60" as="geometry" />
        </mxCell>
        <mxCell id="LiszowRizHazjW7_zklP-26" value="" style="edgeStyle=orthogonalEdgeStyle;rounded=0;orthogonalLoop=1;jettySize=auto;html=1;" edge="1" parent="1" source="LiszowRizHazjW7_zklP-28" target="LiszowRizHazjW7_zklP-30">
          <mxGeometry relative="1" as="geometry" />
        </mxCell>
        <mxCell id="LiszowRizHazjW7_zklP-27" style="edgeStyle=orthogonalEdgeStyle;rounded=0;orthogonalLoop=1;jettySize=auto;html=1;" edge="1" parent="1" source="LiszowRizHazjW7_zklP-28">
          <mxGeometry relative="1" as="geometry">
            <mxPoint x="795" y="720" as="targetPoint" />
          </mxGeometry>
        </mxCell>
        <mxCell id="LiszowRizHazjW7_zklP-28" value="j &amp;gt;=0 &amp;amp;&amp;amp;a[j]&amp;lt; temp" style="rhombus;whiteSpace=wrap;html=1;" vertex="1" parent="1">
          <mxGeometry x="730" y="850" width="130" height="80" as="geometry" />
        </mxCell>
        <mxCell id="LiszowRizHazjW7_zklP-29" value="" style="edgeStyle=orthogonalEdgeStyle;rounded=0;orthogonalLoop=1;jettySize=auto;html=1;" edge="1" parent="1" source="LiszowRizHazjW7_zklP-30" target="LiszowRizHazjW7_zklP-32">
          <mxGeometry relative="1" as="geometry" />
        </mxCell>
        <mxCell id="LiszowRizHazjW7_zklP-30" value="a[j+1] = a[j]&lt;br&gt;j =j-1&lt;br&gt;a[j+1] = temp" style="rounded=0;whiteSpace=wrap;html=1;" vertex="1" parent="1">
          <mxGeometry x="900" y="860" width="120" height="60" as="geometry" />
        </mxCell>
        <mxCell id="LiszowRizHazjW7_zklP-31" style="edgeStyle=orthogonalEdgeStyle;rounded=0;orthogonalLoop=1;jettySize=auto;html=1;entryX=0.5;entryY=0;entryDx=0;entryDy=0;" edge="1" parent="1" source="LiszowRizHazjW7_zklP-32" target="LiszowRizHazjW7_zklP-23">
          <mxGeometry relative="1" as="geometry">
            <Array as="points">
              <mxPoint x="1120" y="720" />
              <mxPoint x="465" y="720" />
            </Array>
          </mxGeometry>
        </mxCell>
        <mxCell id="LiszowRizHazjW7_zklP-32" value="i++" style="rounded=0;whiteSpace=wrap;html=1;" vertex="1" parent="1">
          <mxGeometry x="1060" y="860" width="120" height="60" as="geometry" />
        </mxCell>
        <mxCell id="LiszowRizHazjW7_zklP-33" value="true" style="text;html=1;strokeColor=none;fillColor=none;align=center;verticalAlign=middle;whiteSpace=wrap;rounded=0;" vertex="1" parent="1">
          <mxGeometry x="840" y="860" width="60" height="30" as="geometry" />
        </mxCell>
        <mxCell id="LiszowRizHazjW7_zklP-34" value="true" style="text;html=1;strokeColor=none;fillColor=none;align=center;verticalAlign=middle;whiteSpace=wrap;rounded=0;" vertex="1" parent="1">
          <mxGeometry x="490" y="850" width="60" height="30" as="geometry" />
        </mxCell>
        <mxCell id="LiszowRizHazjW7_zklP-35" value="false" style="text;html=1;strokeColor=none;fillColor=none;align=center;verticalAlign=middle;whiteSpace=wrap;rounded=0;" vertex="1" parent="1">
          <mxGeometry x="750" y="810" width="60" height="30" as="geometry" />
        </mxCell>
        <mxCell id="LiszowRizHazjW7_zklP-36" value="false" style="text;html=1;strokeColor=none;fillColor=none;align=center;verticalAlign=middle;whiteSpace=wrap;rounded=0;" vertex="1" parent="1">
          <mxGeometry x="450" y="970" width="60" height="30" as="geometry" />
        </mxCell>
        <mxCell id="LiszowRizHazjW7_zklP-37" value="" style="edgeStyle=orthogonalEdgeStyle;rounded=0;orthogonalLoop=1;jettySize=auto;html=1;" edge="1" parent="1" source="LiszowRizHazjW7_zklP-38" target="LiszowRizHazjW7_zklP-41">
          <mxGeometry relative="1" as="geometry" />
        </mxCell>
        <mxCell id="LiszowRizHazjW7_zklP-38" value="i=0" style="rounded=0;whiteSpace=wrap;html=1;" vertex="1" parent="1">
          <mxGeometry x="250" y="1190" width="120" height="60" as="geometry" />
        </mxCell>
        <mxCell id="LiszowRizHazjW7_zklP-39" value="" style="edgeStyle=orthogonalEdgeStyle;rounded=0;orthogonalLoop=1;jettySize=auto;html=1;" edge="1" parent="1" source="LiszowRizHazjW7_zklP-41">
          <mxGeometry relative="1" as="geometry">
            <mxPoint x="550" y="1220" as="targetPoint" />
          </mxGeometry>
        </mxCell>
        <mxCell id="LiszowRizHazjW7_zklP-40" style="edgeStyle=orthogonalEdgeStyle;rounded=0;orthogonalLoop=1;jettySize=auto;html=1;" edge="1" parent="1" source="LiszowRizHazjW7_zklP-41">
          <mxGeometry relative="1" as="geometry">
            <Array as="points">
              <mxPoint x="465" y="1420" />
              <mxPoint x="1550" y="1420" />
              <mxPoint x="1550" y="650" />
              <mxPoint x="397" y="650" />
            </Array>
            <mxPoint x="40" y="810" as="targetPoint" />
          </mxGeometry>
        </mxCell>
        <mxCell id="LiszowRizHazjW7_zklP-41" value="i&amp;lt;n-1" style="rhombus;whiteSpace=wrap;html=1;" vertex="1" parent="1">
          <mxGeometry x="425" y="1180" width="80" height="80" as="geometry" />
        </mxCell>
        <mxCell id="LiszowRizHazjW7_zklP-42" value="" style="edgeStyle=orthogonalEdgeStyle;rounded=0;orthogonalLoop=1;jettySize=auto;html=1;" edge="1" parent="1">
          <mxGeometry relative="1" as="geometry">
            <mxPoint x="670" y="1220" as="sourcePoint" />
            <mxPoint x="730" y="1220" as="targetPoint" />
          </mxGeometry>
        </mxCell>
        <mxCell id="LiszowRizHazjW7_zklP-43" value="" style="edgeStyle=orthogonalEdgeStyle;rounded=0;orthogonalLoop=1;jettySize=auto;html=1;" edge="1" parent="1" source="LiszowRizHazjW7_zklP-45" target="LiszowRizHazjW7_zklP-38">
          <mxGeometry relative="1" as="geometry" />
        </mxCell>
        <mxCell id="LiszowRizHazjW7_zklP-44" value="" style="edgeStyle=orthogonalEdgeStyle;rounded=0;orthogonalLoop=1;jettySize=auto;html=1;" edge="1" parent="1" source="LiszowRizHazjW7_zklP-45" target="LiszowRizHazjW7_zklP-64">
          <mxGeometry relative="1" as="geometry" />
        </mxCell>
        <mxCell id="LiszowRizHazjW7_zklP-45" value="case 2" style="rhombus;whiteSpace=wrap;html=1;" vertex="1" parent="1">
          <mxGeometry x="130" y="1180" width="80" height="80" as="geometry" />
        </mxCell>
        <mxCell id="LiszowRizHazjW7_zklP-46" value="" style="edgeStyle=orthogonalEdgeStyle;rounded=0;orthogonalLoop=1;jettySize=auto;html=1;" edge="1" parent="1" source="LiszowRizHazjW7_zklP-48" target="LiszowRizHazjW7_zklP-51">
          <mxGeometry relative="1" as="geometry" />
        </mxCell>
        <mxCell id="LiszowRizHazjW7_zklP-47" style="edgeStyle=orthogonalEdgeStyle;rounded=0;orthogonalLoop=1;jettySize=auto;html=1;entryX=0.5;entryY=1;entryDx=0;entryDy=0;" edge="1" parent="1" source="LiszowRizHazjW7_zklP-48" target="LiszowRizHazjW7_zklP-55">
          <mxGeometry relative="1" as="geometry">
            <Array as="points">
              <mxPoint x="770" y="1350" />
              <mxPoint x="1280" y="1350" />
            </Array>
          </mxGeometry>
        </mxCell>
        <mxCell id="LiszowRizHazjW7_zklP-48" value="j&amp;lt; n" style="rhombus;whiteSpace=wrap;html=1;" vertex="1" parent="1">
          <mxGeometry x="730" y="1180" width="80" height="80" as="geometry" />
        </mxCell>
        <mxCell id="LiszowRizHazjW7_zklP-49" value="j = i+1" style="rounded=0;whiteSpace=wrap;html=1;" vertex="1" parent="1">
          <mxGeometry x="550" y="1190" width="120" height="60" as="geometry" />
        </mxCell>
        <mxCell id="LiszowRizHazjW7_zklP-50" style="edgeStyle=orthogonalEdgeStyle;rounded=0;orthogonalLoop=1;jettySize=auto;html=1;" edge="1" parent="1" source="LiszowRizHazjW7_zklP-51">
          <mxGeometry relative="1" as="geometry">
            <mxPoint x="930" y="1130" as="targetPoint" />
          </mxGeometry>
        </mxCell>
        <mxCell id="LiszowRizHazjW7_zklP-51" value="a[i] &amp;gt; a[j]" style="rhombus;whiteSpace=wrap;html=1;" vertex="1" parent="1">
          <mxGeometry x="890" y="1180" width="80" height="80" as="geometry" />
        </mxCell>
        <mxCell id="LiszowRizHazjW7_zklP-52" value="" style="edgeStyle=orthogonalEdgeStyle;rounded=0;orthogonalLoop=1;jettySize=auto;html=1;" edge="1" parent="1" source="LiszowRizHazjW7_zklP-53" target="LiszowRizHazjW7_zklP-55">
          <mxGeometry relative="1" as="geometry">
            <Array as="points">
              <mxPoint x="1190" y="1220" />
              <mxPoint x="1190" y="1220" />
            </Array>
          </mxGeometry>
        </mxCell>
        <mxCell id="LiszowRizHazjW7_zklP-53" value="temp = a[i]&lt;br&gt;a[i] = a[j]&lt;br&gt;a[j] = temp" style="rounded=0;whiteSpace=wrap;html=1;" vertex="1" parent="1">
          <mxGeometry x="1020" y="1190" width="120" height="60" as="geometry" />
        </mxCell>
        <mxCell id="LiszowRizHazjW7_zklP-54" style="edgeStyle=orthogonalEdgeStyle;rounded=0;orthogonalLoop=1;jettySize=auto;html=1;entryX=0.5;entryY=0;entryDx=0;entryDy=0;" edge="1" parent="1" source="LiszowRizHazjW7_zklP-55" target="LiszowRizHazjW7_zklP-41">
          <mxGeometry relative="1" as="geometry">
            <Array as="points">
              <mxPoint x="1280" y="1130" />
              <mxPoint x="465" y="1130" />
            </Array>
          </mxGeometry>
        </mxCell>
        <mxCell id="LiszowRizHazjW7_zklP-55" value="i++&lt;br&gt;j++" style="whiteSpace=wrap;html=1;rounded=0;" vertex="1" parent="1">
          <mxGeometry x="1220" y="1190" width="120" height="60" as="geometry" />
        </mxCell>
        <mxCell id="LiszowRizHazjW7_zklP-56" value="true" style="text;html=1;strokeColor=none;fillColor=none;align=center;verticalAlign=middle;whiteSpace=wrap;rounded=0;" vertex="1" parent="1">
          <mxGeometry x="490" y="1190" width="60" height="30" as="geometry" />
        </mxCell>
        <mxCell id="LiszowRizHazjW7_zklP-57" value="true" style="text;html=1;strokeColor=none;fillColor=none;align=center;verticalAlign=middle;whiteSpace=wrap;rounded=0;" vertex="1" parent="1">
          <mxGeometry x="810" y="1190" width="60" height="30" as="geometry" />
        </mxCell>
        <mxCell id="LiszowRizHazjW7_zklP-58" value="true" style="text;html=1;strokeColor=none;fillColor=none;align=center;verticalAlign=middle;whiteSpace=wrap;rounded=0;" vertex="1" parent="1">
          <mxGeometry x="960" y="1180" width="60" height="30" as="geometry" />
        </mxCell>
        <mxCell id="LiszowRizHazjW7_zklP-59" value="false" style="text;html=1;strokeColor=none;fillColor=none;align=center;verticalAlign=middle;whiteSpace=wrap;rounded=0;" vertex="1" parent="1">
          <mxGeometry x="880" y="1145" width="60" height="30" as="geometry" />
        </mxCell>
        <mxCell id="LiszowRizHazjW7_zklP-60" value="fasle" style="text;html=1;strokeColor=none;fillColor=none;align=center;verticalAlign=middle;whiteSpace=wrap;rounded=0;" vertex="1" parent="1">
          <mxGeometry x="710" y="1280" width="60" height="30" as="geometry" />
        </mxCell>
        <mxCell id="LiszowRizHazjW7_zklP-61" value="fasle" style="text;html=1;strokeColor=none;fillColor=none;align=center;verticalAlign=middle;whiteSpace=wrap;rounded=0;" vertex="1" parent="1">
          <mxGeometry x="470" y="1270" width="60" height="30" as="geometry" />
        </mxCell>
        <mxCell id="LiszowRizHazjW7_zklP-62" value="" style="edgeStyle=orthogonalEdgeStyle;rounded=0;orthogonalLoop=1;jettySize=auto;html=1;" edge="1" parent="1" source="LiszowRizHazjW7_zklP-64" target="LiszowRizHazjW7_zklP-66">
          <mxGeometry relative="1" as="geometry" />
        </mxCell>
        <mxCell id="LiszowRizHazjW7_zklP-63" value="" style="edgeStyle=orthogonalEdgeStyle;rounded=0;orthogonalLoop=1;jettySize=auto;html=1;" edge="1" parent="1" source="LiszowRizHazjW7_zklP-64" target="LiszowRizHazjW7_zklP-89">
          <mxGeometry relative="1" as="geometry" />
        </mxCell>
        <mxCell id="LiszowRizHazjW7_zklP-64" value="case 3" style="rhombus;whiteSpace=wrap;html=1;" vertex="1" parent="1">
          <mxGeometry x="130" y="1630" width="80" height="80" as="geometry" />
        </mxCell>
        <mxCell id="LiszowRizHazjW7_zklP-65" value="" style="edgeStyle=orthogonalEdgeStyle;rounded=0;orthogonalLoop=1;jettySize=auto;html=1;" edge="1" parent="1" source="LiszowRizHazjW7_zklP-66" target="LiszowRizHazjW7_zklP-69">
          <mxGeometry relative="1" as="geometry" />
        </mxCell>
        <mxCell id="LiszowRizHazjW7_zklP-66" value="i=0" style="rounded=0;whiteSpace=wrap;html=1;" vertex="1" parent="1">
          <mxGeometry x="250" y="1640" width="120" height="60" as="geometry" />
        </mxCell>
        <mxCell id="LiszowRizHazjW7_zklP-67" value="" style="edgeStyle=orthogonalEdgeStyle;rounded=0;orthogonalLoop=1;jettySize=auto;html=1;" edge="1" parent="1" source="LiszowRizHazjW7_zklP-69">
          <mxGeometry relative="1" as="geometry">
            <mxPoint x="550" y="1670" as="targetPoint" />
          </mxGeometry>
        </mxCell>
        <mxCell id="LiszowRizHazjW7_zklP-68" style="edgeStyle=orthogonalEdgeStyle;rounded=0;orthogonalLoop=1;jettySize=auto;html=1;" edge="1" parent="1" source="LiszowRizHazjW7_zklP-69">
          <mxGeometry relative="1" as="geometry">
            <mxPoint x="1540" y="1418.4000244140625" as="targetPoint" />
            <Array as="points">
              <mxPoint x="465" y="1870" />
              <mxPoint x="1541" y="1870" />
            </Array>
          </mxGeometry>
        </mxCell>
        <mxCell id="LiszowRizHazjW7_zklP-69" value="i&amp;lt;n-1" style="rhombus;whiteSpace=wrap;html=1;" vertex="1" parent="1">
          <mxGeometry x="425" y="1630" width="80" height="80" as="geometry" />
        </mxCell>
        <mxCell id="LiszowRizHazjW7_zklP-70" value="" style="edgeStyle=orthogonalEdgeStyle;rounded=0;orthogonalLoop=1;jettySize=auto;html=1;" edge="1" parent="1">
          <mxGeometry relative="1" as="geometry">
            <mxPoint x="670" y="1670" as="sourcePoint" />
            <mxPoint x="730" y="1670" as="targetPoint" />
          </mxGeometry>
        </mxCell>
        <mxCell id="LiszowRizHazjW7_zklP-71" value="" style="edgeStyle=orthogonalEdgeStyle;rounded=0;orthogonalLoop=1;jettySize=auto;html=1;" edge="1" parent="1" source="LiszowRizHazjW7_zklP-73" target="LiszowRizHazjW7_zklP-76">
          <mxGeometry relative="1" as="geometry" />
        </mxCell>
        <mxCell id="LiszowRizHazjW7_zklP-72" style="edgeStyle=orthogonalEdgeStyle;rounded=0;orthogonalLoop=1;jettySize=auto;html=1;entryX=0.5;entryY=1;entryDx=0;entryDy=0;" edge="1" parent="1" source="LiszowRizHazjW7_zklP-73" target="LiszowRizHazjW7_zklP-80">
          <mxGeometry relative="1" as="geometry">
            <Array as="points">
              <mxPoint x="770" y="1800" />
              <mxPoint x="1280" y="1800" />
            </Array>
          </mxGeometry>
        </mxCell>
        <mxCell id="LiszowRizHazjW7_zklP-73" value="j&amp;lt; n" style="rhombus;whiteSpace=wrap;html=1;" vertex="1" parent="1">
          <mxGeometry x="730" y="1630" width="80" height="80" as="geometry" />
        </mxCell>
        <mxCell id="LiszowRizHazjW7_zklP-74" value="j = i+1" style="rounded=0;whiteSpace=wrap;html=1;" vertex="1" parent="1">
          <mxGeometry x="550" y="1640" width="120" height="60" as="geometry" />
        </mxCell>
        <mxCell id="LiszowRizHazjW7_zklP-75" style="edgeStyle=orthogonalEdgeStyle;rounded=0;orthogonalLoop=1;jettySize=auto;html=1;" edge="1" parent="1" source="LiszowRizHazjW7_zklP-76">
          <mxGeometry relative="1" as="geometry">
            <mxPoint x="930" y="1580" as="targetPoint" />
          </mxGeometry>
        </mxCell>
        <mxCell id="LiszowRizHazjW7_zklP-76" value="a[j] &amp;lt;a[j+1]" style="rhombus;whiteSpace=wrap;html=1;" vertex="1" parent="1">
          <mxGeometry x="890" y="1630" width="80" height="80" as="geometry" />
        </mxCell>
        <mxCell id="LiszowRizHazjW7_zklP-77" value="" style="edgeStyle=orthogonalEdgeStyle;rounded=0;orthogonalLoop=1;jettySize=auto;html=1;" edge="1" parent="1" source="LiszowRizHazjW7_zklP-78" target="LiszowRizHazjW7_zklP-80">
          <mxGeometry relative="1" as="geometry">
            <Array as="points">
              <mxPoint x="1190" y="1670" />
              <mxPoint x="1190" y="1670" />
            </Array>
          </mxGeometry>
        </mxCell>
        <mxCell id="LiszowRizHazjW7_zklP-78" value="temp = a[j]&lt;br&gt;a[i] = a[j+1]&lt;br&gt;a[j+1] = temp" style="rounded=0;whiteSpace=wrap;html=1;" vertex="1" parent="1">
          <mxGeometry x="1020" y="1640" width="120" height="60" as="geometry" />
        </mxCell>
        <mxCell id="LiszowRizHazjW7_zklP-79" style="edgeStyle=orthogonalEdgeStyle;rounded=0;orthogonalLoop=1;jettySize=auto;html=1;entryX=0.5;entryY=0;entryDx=0;entryDy=0;" edge="1" parent="1" source="LiszowRizHazjW7_zklP-80" target="LiszowRizHazjW7_zklP-69">
          <mxGeometry relative="1" as="geometry">
            <Array as="points">
              <mxPoint x="1280" y="1580" />
              <mxPoint x="465" y="1580" />
            </Array>
          </mxGeometry>
        </mxCell>
        <mxCell id="LiszowRizHazjW7_zklP-80" value="i++&lt;br&gt;j++" style="whiteSpace=wrap;html=1;rounded=0;" vertex="1" parent="1">
          <mxGeometry x="1220" y="1640" width="120" height="60" as="geometry" />
        </mxCell>
        <mxCell id="LiszowRizHazjW7_zklP-81" value="true" style="text;html=1;strokeColor=none;fillColor=none;align=center;verticalAlign=middle;whiteSpace=wrap;rounded=0;" vertex="1" parent="1">
          <mxGeometry x="490" y="1640" width="60" height="30" as="geometry" />
        </mxCell>
        <mxCell id="LiszowRizHazjW7_zklP-82" value="true" style="text;html=1;strokeColor=none;fillColor=none;align=center;verticalAlign=middle;whiteSpace=wrap;rounded=0;" vertex="1" parent="1">
          <mxGeometry x="810" y="1640" width="60" height="30" as="geometry" />
        </mxCell>
        <mxCell id="LiszowRizHazjW7_zklP-83" value="true" style="text;html=1;strokeColor=none;fillColor=none;align=center;verticalAlign=middle;whiteSpace=wrap;rounded=0;" vertex="1" parent="1">
          <mxGeometry x="960" y="1630" width="60" height="30" as="geometry" />
        </mxCell>
        <mxCell id="LiszowRizHazjW7_zklP-84" value="false" style="text;html=1;strokeColor=none;fillColor=none;align=center;verticalAlign=middle;whiteSpace=wrap;rounded=0;" vertex="1" parent="1">
          <mxGeometry x="880" y="1595" width="60" height="30" as="geometry" />
        </mxCell>
        <mxCell id="LiszowRizHazjW7_zklP-85" value="fasle" style="text;html=1;strokeColor=none;fillColor=none;align=center;verticalAlign=middle;whiteSpace=wrap;rounded=0;" vertex="1" parent="1">
          <mxGeometry x="710" y="1730" width="60" height="30" as="geometry" />
        </mxCell>
        <mxCell id="LiszowRizHazjW7_zklP-86" value="false" style="text;html=1;strokeColor=none;fillColor=none;align=center;verticalAlign=middle;whiteSpace=wrap;rounded=0;" vertex="1" parent="1">
          <mxGeometry x="450" y="1730" width="60" height="30" as="geometry" />
        </mxCell>
        <mxCell id="LiszowRizHazjW7_zklP-87" value="" style="edgeStyle=orthogonalEdgeStyle;rounded=0;orthogonalLoop=1;jettySize=auto;html=1;" edge="1" parent="1" source="LiszowRizHazjW7_zklP-89" target="LiszowRizHazjW7_zklP-90">
          <mxGeometry relative="1" as="geometry" />
        </mxCell>
        <mxCell id="LiszowRizHazjW7_zklP-88" value="" style="edgeStyle=orthogonalEdgeStyle;rounded=0;orthogonalLoop=1;jettySize=auto;html=1;" edge="1" parent="1" source="LiszowRizHazjW7_zklP-89" target="LiszowRizHazjW7_zklP-92">
          <mxGeometry relative="1" as="geometry" />
        </mxCell>
        <mxCell id="LiszowRizHazjW7_zklP-89" value="case 4" style="rhombus;whiteSpace=wrap;html=1;" vertex="1" parent="1">
          <mxGeometry x="130" y="1930" width="80" height="80" as="geometry" />
        </mxCell>
        <mxCell id="LiszowRizHazjW7_zklP-90" value="end" style="shape=parallelogram;perimeter=parallelogramPerimeter;whiteSpace=wrap;html=1;fixedSize=1;" vertex="1" parent="1">
          <mxGeometry x="270" y="1940" width="120" height="60" as="geometry" />
        </mxCell>
        <mxCell id="LiszowRizHazjW7_zklP-91" style="edgeStyle=orthogonalEdgeStyle;rounded=0;orthogonalLoop=1;jettySize=auto;html=1;" edge="1" parent="1" source="LiszowRizHazjW7_zklP-92">
          <mxGeometry relative="1" as="geometry">
            <mxPoint x="1540" y="1870" as="targetPoint" />
          </mxGeometry>
        </mxCell>
        <mxCell id="LiszowRizHazjW7_zklP-92" value="vui long nhap tu 1-4" style="shape=parallelogram;perimeter=parallelogramPerimeter;whiteSpace=wrap;html=1;fixedSize=1;" vertex="1" parent="1">
          <mxGeometry x="110" y="2100" width="120" height="60" as="geometry" />
        </mxCell>
      </root>
    </mxGraphModel>
  </diagram>
  <diagram id="RvVJlErhXjuVc_O4GDUW" name="BT2">
    <mxGraphModel dx="1290" dy="1703" grid="1" gridSize="10" guides="1" tooltips="1" connect="1" arrows="1" fold="1" page="1" pageScale="1" pageWidth="827" pageHeight="1169" math="0" shadow="0">
      <root>
        <mxCell id="0" />
        <mxCell id="1" parent="0" />
        <mxCell id="dkCCmT9yHK8t0eKhnpki-1" style="edgeStyle=orthogonalEdgeStyle;rounded=0;orthogonalLoop=1;jettySize=auto;html=1;entryX=0.5;entryY=0;entryDx=0;entryDy=0;" edge="1" parent="1" source="dkCCmT9yHK8t0eKhnpki-2" target="dkCCmT9yHK8t0eKhnpki-4">
          <mxGeometry relative="1" as="geometry">
            <mxPoint x="410" y="190" as="targetPoint" />
          </mxGeometry>
        </mxCell>
        <mxCell id="dkCCmT9yHK8t0eKhnpki-2" value="start" style="ellipse;whiteSpace=wrap;html=1;" vertex="1" parent="1">
          <mxGeometry x="350" y="-30" width="120" height="80" as="geometry" />
        </mxCell>
        <mxCell id="dkCCmT9yHK8t0eKhnpki-3" style="edgeStyle=orthogonalEdgeStyle;rounded=0;orthogonalLoop=1;jettySize=auto;html=1;entryX=0.5;entryY=0;entryDx=0;entryDy=0;" edge="1" parent="1" source="dkCCmT9yHK8t0eKhnpki-4" target="dkCCmT9yHK8t0eKhnpki-6">
          <mxGeometry relative="1" as="geometry">
            <mxPoint x="410" y="290" as="targetPoint" />
          </mxGeometry>
        </mxCell>
        <mxCell id="dkCCmT9yHK8t0eKhnpki-4" value="&amp;nbsp;col ,row" style="shape=parallelogram;perimeter=parallelogramPerimeter;whiteSpace=wrap;html=1;fixedSize=1;" vertex="1" parent="1">
          <mxGeometry x="335" y="120" width="150" height="80" as="geometry" />
        </mxCell>
        <mxCell id="dkCCmT9yHK8t0eKhnpki-5" value="" style="edgeStyle=orthogonalEdgeStyle;rounded=0;orthogonalLoop=1;jettySize=auto;html=1;" edge="1" parent="1" source="dkCCmT9yHK8t0eKhnpki-6" target="dkCCmT9yHK8t0eKhnpki-11">
          <mxGeometry relative="1" as="geometry" />
        </mxCell>
        <mxCell id="dkCCmT9yHK8t0eKhnpki-6" value="i=0,j=0" style="rounded=1;whiteSpace=wrap;html=1;" vertex="1" parent="1">
          <mxGeometry x="350" y="260" width="120" height="60" as="geometry" />
        </mxCell>
        <mxCell id="dkCCmT9yHK8t0eKhnpki-7" value="" style="edgeStyle=orthogonalEdgeStyle;rounded=0;orthogonalLoop=1;jettySize=auto;html=1;" edge="1" parent="1" source="dkCCmT9yHK8t0eKhnpki-11" target="dkCCmT9yHK8t0eKhnpki-16">
          <mxGeometry relative="1" as="geometry" />
        </mxCell>
        <mxCell id="dkCCmT9yHK8t0eKhnpki-8" value="true" style="edgeLabel;html=1;align=center;verticalAlign=middle;resizable=0;points=[];" vertex="1" connectable="0" parent="dkCCmT9yHK8t0eKhnpki-7">
          <mxGeometry x="-0.45" relative="1" as="geometry">
            <mxPoint as="offset" />
          </mxGeometry>
        </mxCell>
        <mxCell id="dkCCmT9yHK8t0eKhnpki-9" style="edgeStyle=orthogonalEdgeStyle;rounded=0;orthogonalLoop=1;jettySize=auto;html=1;" edge="1" parent="1" source="dkCCmT9yHK8t0eKhnpki-11" target="dkCCmT9yHK8t0eKhnpki-24">
          <mxGeometry relative="1" as="geometry">
            <mxPoint x="129" y="1120" as="targetPoint" />
          </mxGeometry>
        </mxCell>
        <mxCell id="dkCCmT9yHK8t0eKhnpki-10" value="false" style="edgeLabel;html=1;align=center;verticalAlign=middle;resizable=0;points=[];" vertex="1" connectable="0" parent="dkCCmT9yHK8t0eKhnpki-9">
          <mxGeometry x="0.0629" relative="1" as="geometry">
            <mxPoint as="offset" />
          </mxGeometry>
        </mxCell>
        <mxCell id="dkCCmT9yHK8t0eKhnpki-11" value="i&amp;lt;row" style="rhombus;whiteSpace=wrap;html=1;rounded=1;" vertex="1" parent="1">
          <mxGeometry x="370" y="390" width="80" height="80" as="geometry" />
        </mxCell>
        <mxCell id="dkCCmT9yHK8t0eKhnpki-12" value="" style="edgeStyle=orthogonalEdgeStyle;rounded=0;orthogonalLoop=1;jettySize=auto;html=1;" edge="1" parent="1" source="dkCCmT9yHK8t0eKhnpki-16" target="dkCCmT9yHK8t0eKhnpki-18">
          <mxGeometry relative="1" as="geometry" />
        </mxCell>
        <mxCell id="dkCCmT9yHK8t0eKhnpki-13" value="true" style="edgeLabel;html=1;align=center;verticalAlign=middle;resizable=0;points=[];" vertex="1" connectable="0" parent="dkCCmT9yHK8t0eKhnpki-12">
          <mxGeometry x="-0.2889" y="3" relative="1" as="geometry">
            <mxPoint as="offset" />
          </mxGeometry>
        </mxCell>
        <mxCell id="dkCCmT9yHK8t0eKhnpki-14" value="" style="edgeStyle=orthogonalEdgeStyle;rounded=0;orthogonalLoop=1;jettySize=auto;html=1;" edge="1" parent="1" source="dkCCmT9yHK8t0eKhnpki-16" target="dkCCmT9yHK8t0eKhnpki-22">
          <mxGeometry relative="1" as="geometry" />
        </mxCell>
        <mxCell id="dkCCmT9yHK8t0eKhnpki-15" value="false" style="edgeLabel;html=1;align=center;verticalAlign=middle;resizable=0;points=[];" vertex="1" connectable="0" parent="dkCCmT9yHK8t0eKhnpki-14">
          <mxGeometry x="-0.0333" y="-1" relative="1" as="geometry">
            <mxPoint as="offset" />
          </mxGeometry>
        </mxCell>
        <mxCell id="dkCCmT9yHK8t0eKhnpki-16" value="j&amp;lt;col" style="rhombus;whiteSpace=wrap;html=1;rounded=1;" vertex="1" parent="1">
          <mxGeometry x="370" y="550" width="80" height="80" as="geometry" />
        </mxCell>
        <mxCell id="dkCCmT9yHK8t0eKhnpki-17" value="" style="edgeStyle=orthogonalEdgeStyle;rounded=0;orthogonalLoop=1;jettySize=auto;html=1;" edge="1" parent="1" source="dkCCmT9yHK8t0eKhnpki-18" target="dkCCmT9yHK8t0eKhnpki-20">
          <mxGeometry relative="1" as="geometry" />
        </mxCell>
        <mxCell id="dkCCmT9yHK8t0eKhnpki-18" value="arr[i][j]" style="shape=parallelogram;perimeter=parallelogramPerimeter;whiteSpace=wrap;html=1;fixedSize=1;rounded=1;" vertex="1" parent="1">
          <mxGeometry x="350" y="720" width="120" height="60" as="geometry" />
        </mxCell>
        <mxCell id="dkCCmT9yHK8t0eKhnpki-19" style="edgeStyle=orthogonalEdgeStyle;rounded=0;orthogonalLoop=1;jettySize=auto;html=1;entryX=0;entryY=0.5;entryDx=0;entryDy=0;" edge="1" parent="1" source="dkCCmT9yHK8t0eKhnpki-20" target="dkCCmT9yHK8t0eKhnpki-16">
          <mxGeometry relative="1" as="geometry">
            <mxPoint x="250" y="600" as="targetPoint" />
            <Array as="points">
              <mxPoint x="251" y="890" />
              <mxPoint x="251" y="590" />
            </Array>
          </mxGeometry>
        </mxCell>
        <mxCell id="dkCCmT9yHK8t0eKhnpki-20" value="j++" style="rounded=1;whiteSpace=wrap;html=1;" vertex="1" parent="1">
          <mxGeometry x="350" y="860" width="120" height="60" as="geometry" />
        </mxCell>
        <mxCell id="dkCCmT9yHK8t0eKhnpki-21" style="edgeStyle=orthogonalEdgeStyle;rounded=0;orthogonalLoop=1;jettySize=auto;html=1;entryX=1;entryY=0.5;entryDx=0;entryDy=0;" edge="1" parent="1" source="dkCCmT9yHK8t0eKhnpki-22" target="dkCCmT9yHK8t0eKhnpki-11">
          <mxGeometry relative="1" as="geometry">
            <mxPoint x="570" y="380" as="targetPoint" />
            <Array as="points">
              <mxPoint x="570" y="470" />
              <mxPoint x="571" y="470" />
              <mxPoint x="571" y="430" />
            </Array>
          </mxGeometry>
        </mxCell>
        <mxCell id="dkCCmT9yHK8t0eKhnpki-22" value="i++" style="whiteSpace=wrap;html=1;rounded=1;" vertex="1" parent="1">
          <mxGeometry x="510" y="560" width="120" height="60" as="geometry" />
        </mxCell>
        <mxCell id="dkCCmT9yHK8t0eKhnpki-23" value="" style="edgeStyle=orthogonalEdgeStyle;rounded=0;orthogonalLoop=1;jettySize=auto;html=1;" edge="1" parent="1" source="dkCCmT9yHK8t0eKhnpki-24" target="dkCCmT9yHK8t0eKhnpki-26">
          <mxGeometry relative="1" as="geometry" />
        </mxCell>
        <mxCell id="dkCCmT9yHK8t0eKhnpki-24" value="IN MENU" style="rounded=1;whiteSpace=wrap;html=1;" vertex="1" parent="1">
          <mxGeometry x="69" y="1090" width="120" height="60" as="geometry" />
        </mxCell>
        <mxCell id="dkCCmT9yHK8t0eKhnpki-25" value="" style="edgeStyle=orthogonalEdgeStyle;rounded=0;orthogonalLoop=1;jettySize=auto;html=1;" edge="1" parent="1" source="dkCCmT9yHK8t0eKhnpki-26" target="dkCCmT9yHK8t0eKhnpki-31">
          <mxGeometry relative="1" as="geometry" />
        </mxCell>
        <mxCell id="dkCCmT9yHK8t0eKhnpki-26" value="choice" style="shape=parallelogram;perimeter=parallelogramPerimeter;whiteSpace=wrap;html=1;fixedSize=1;rounded=1;" vertex="1" parent="1">
          <mxGeometry x="69" y="1230" width="120" height="60" as="geometry" />
        </mxCell>
        <mxCell id="dkCCmT9yHK8t0eKhnpki-27" style="edgeStyle=orthogonalEdgeStyle;rounded=0;orthogonalLoop=1;jettySize=auto;html=1;" edge="1" parent="1" source="dkCCmT9yHK8t0eKhnpki-31" target="dkCCmT9yHK8t0eKhnpki-36">
          <mxGeometry relative="1" as="geometry">
            <Array as="points">
              <mxPoint x="210" y="1430" />
              <mxPoint x="210" y="1430" />
            </Array>
          </mxGeometry>
        </mxCell>
        <mxCell id="dkCCmT9yHK8t0eKhnpki-28" value="true" style="edgeLabel;html=1;align=center;verticalAlign=middle;resizable=0;points=[];" vertex="1" connectable="0" parent="dkCCmT9yHK8t0eKhnpki-27">
          <mxGeometry x="-0.1775" y="-4" relative="1" as="geometry">
            <mxPoint as="offset" />
          </mxGeometry>
        </mxCell>
        <mxCell id="dkCCmT9yHK8t0eKhnpki-29" value="" style="edgeStyle=orthogonalEdgeStyle;rounded=0;orthogonalLoop=1;jettySize=auto;html=1;" edge="1" parent="1" source="dkCCmT9yHK8t0eKhnpki-31" target="dkCCmT9yHK8t0eKhnpki-51">
          <mxGeometry relative="1" as="geometry" />
        </mxCell>
        <mxCell id="dkCCmT9yHK8t0eKhnpki-30" value="falese" style="edgeLabel;html=1;align=center;verticalAlign=middle;resizable=0;points=[];" vertex="1" connectable="0" parent="dkCCmT9yHK8t0eKhnpki-29">
          <mxGeometry x="-0.0857" y="-5" relative="1" as="geometry">
            <mxPoint y="1" as="offset" />
          </mxGeometry>
        </mxCell>
        <mxCell id="dkCCmT9yHK8t0eKhnpki-31" value="choice==1" style="rhombus;whiteSpace=wrap;html=1;rounded=1;" vertex="1" parent="1">
          <mxGeometry x="73.5" y="1375" width="111" height="110" as="geometry" />
        </mxCell>
        <mxCell id="dkCCmT9yHK8t0eKhnpki-32" value="" style="edgeStyle=orthogonalEdgeStyle;rounded=0;orthogonalLoop=1;jettySize=auto;html=1;" edge="1" parent="1" source="dkCCmT9yHK8t0eKhnpki-36" target="dkCCmT9yHK8t0eKhnpki-40">
          <mxGeometry relative="1" as="geometry" />
        </mxCell>
        <mxCell id="dkCCmT9yHK8t0eKhnpki-33" value="true" style="edgeLabel;html=1;align=center;verticalAlign=middle;resizable=0;points=[];" vertex="1" connectable="0" parent="dkCCmT9yHK8t0eKhnpki-32">
          <mxGeometry x="-0.45" relative="1" as="geometry">
            <mxPoint as="offset" />
          </mxGeometry>
        </mxCell>
        <mxCell id="dkCCmT9yHK8t0eKhnpki-34" style="edgeStyle=orthogonalEdgeStyle;rounded=0;orthogonalLoop=1;jettySize=auto;html=1;" edge="1" parent="1" source="dkCCmT9yHK8t0eKhnpki-36">
          <mxGeometry relative="1" as="geometry">
            <mxPoint x="130" y="990" as="targetPoint" />
            <Array as="points">
              <mxPoint x="289" y="1620" />
              <mxPoint x="1190" y="1620" />
              <mxPoint x="1190" y="980" />
              <mxPoint x="130" y="980" />
            </Array>
          </mxGeometry>
        </mxCell>
        <mxCell id="dkCCmT9yHK8t0eKhnpki-35" value="false" style="edgeLabel;html=1;align=center;verticalAlign=middle;resizable=0;points=[];" vertex="1" connectable="0" parent="dkCCmT9yHK8t0eKhnpki-34">
          <mxGeometry x="-0.6391" y="-6" relative="1" as="geometry">
            <mxPoint as="offset" />
          </mxGeometry>
        </mxCell>
        <mxCell id="dkCCmT9yHK8t0eKhnpki-36" value="i&amp;lt;row" style="rhombus;whiteSpace=wrap;html=1;rounded=1;" vertex="1" parent="1">
          <mxGeometry x="248.94" y="1390" width="80" height="80" as="geometry" />
        </mxCell>
        <mxCell id="dkCCmT9yHK8t0eKhnpki-37" value="" style="edgeStyle=orthogonalEdgeStyle;rounded=0;orthogonalLoop=1;jettySize=auto;html=1;" edge="1" parent="1" source="dkCCmT9yHK8t0eKhnpki-40" target="dkCCmT9yHK8t0eKhnpki-42">
          <mxGeometry relative="1" as="geometry" />
        </mxCell>
        <mxCell id="dkCCmT9yHK8t0eKhnpki-38" value="true" style="edgeLabel;html=1;align=center;verticalAlign=middle;resizable=0;points=[];" vertex="1" connectable="0" parent="dkCCmT9yHK8t0eKhnpki-37">
          <mxGeometry x="-0.2889" y="3" relative="1" as="geometry">
            <mxPoint as="offset" />
          </mxGeometry>
        </mxCell>
        <mxCell id="dkCCmT9yHK8t0eKhnpki-39" value="false" style="edgeStyle=orthogonalEdgeStyle;rounded=0;orthogonalLoop=1;jettySize=auto;html=1;entryX=1;entryY=0.5;entryDx=0;entryDy=0;" edge="1" parent="1" source="dkCCmT9yHK8t0eKhnpki-40" target="dkCCmT9yHK8t0eKhnpki-46">
          <mxGeometry relative="1" as="geometry">
            <Array as="points">
              <mxPoint x="490" y="1310" />
              <mxPoint x="369" y="1310" />
            </Array>
          </mxGeometry>
        </mxCell>
        <mxCell id="dkCCmT9yHK8t0eKhnpki-40" value="j&amp;lt;col" style="rhombus;whiteSpace=wrap;html=1;rounded=1;" vertex="1" parent="1">
          <mxGeometry x="450" y="1390" width="80" height="80" as="geometry" />
        </mxCell>
        <mxCell id="dkCCmT9yHK8t0eKhnpki-41" value="" style="edgeStyle=orthogonalEdgeStyle;rounded=0;orthogonalLoop=1;jettySize=auto;html=1;" edge="1" parent="1" source="dkCCmT9yHK8t0eKhnpki-42" target="dkCCmT9yHK8t0eKhnpki-44">
          <mxGeometry relative="1" as="geometry" />
        </mxCell>
        <mxCell id="dkCCmT9yHK8t0eKhnpki-42" value="arr[i][j]" style="shape=parallelogram;perimeter=parallelogramPerimeter;whiteSpace=wrap;html=1;fixedSize=1;rounded=1;" vertex="1" parent="1">
          <mxGeometry x="630" y="1400" width="120" height="60" as="geometry" />
        </mxCell>
        <mxCell id="dkCCmT9yHK8t0eKhnpki-43" style="edgeStyle=orthogonalEdgeStyle;rounded=0;orthogonalLoop=1;jettySize=auto;html=1;entryX=0.5;entryY=1;entryDx=0;entryDy=0;" edge="1" parent="1" source="dkCCmT9yHK8t0eKhnpki-44" target="dkCCmT9yHK8t0eKhnpki-40">
          <mxGeometry relative="1" as="geometry">
            <mxPoint x="490" y="1500" as="targetPoint" />
            <Array as="points">
              <mxPoint x="940" y="1520" />
              <mxPoint x="490" y="1520" />
            </Array>
          </mxGeometry>
        </mxCell>
        <mxCell id="dkCCmT9yHK8t0eKhnpki-44" value="j++" style="rounded=1;whiteSpace=wrap;html=1;" vertex="1" parent="1">
          <mxGeometry x="880" y="1400" width="120" height="60" as="geometry" />
        </mxCell>
        <mxCell id="dkCCmT9yHK8t0eKhnpki-45" style="edgeStyle=orthogonalEdgeStyle;rounded=0;orthogonalLoop=1;jettySize=auto;html=1;entryX=0.5;entryY=0;entryDx=0;entryDy=0;" edge="1" parent="1" source="dkCCmT9yHK8t0eKhnpki-46" target="dkCCmT9yHK8t0eKhnpki-36">
          <mxGeometry relative="1" as="geometry">
            <mxPoint x="289" y="1360" as="targetPoint" />
            <Array as="points">
              <mxPoint x="289" y="1290" />
              <mxPoint x="290" y="1330" />
              <mxPoint x="289" y="1330" />
            </Array>
          </mxGeometry>
        </mxCell>
        <mxCell id="dkCCmT9yHK8t0eKhnpki-46" value="i++" style="whiteSpace=wrap;html=1;rounded=1;" vertex="1" parent="1">
          <mxGeometry x="248.94" y="1290" width="120" height="60" as="geometry" />
        </mxCell>
        <mxCell id="dkCCmT9yHK8t0eKhnpki-47" style="edgeStyle=orthogonalEdgeStyle;rounded=0;orthogonalLoop=1;jettySize=auto;html=1;entryX=0;entryY=0.5;entryDx=0;entryDy=0;" edge="1" parent="1" source="dkCCmT9yHK8t0eKhnpki-51" target="dkCCmT9yHK8t0eKhnpki-56">
          <mxGeometry relative="1" as="geometry" />
        </mxCell>
        <mxCell id="dkCCmT9yHK8t0eKhnpki-48" value="true" style="edgeLabel;html=1;align=center;verticalAlign=middle;resizable=0;points=[];" vertex="1" connectable="0" parent="dkCCmT9yHK8t0eKhnpki-47">
          <mxGeometry x="-0.1341" y="2" relative="1" as="geometry">
            <mxPoint as="offset" />
          </mxGeometry>
        </mxCell>
        <mxCell id="dkCCmT9yHK8t0eKhnpki-49" value="" style="edgeStyle=orthogonalEdgeStyle;rounded=0;orthogonalLoop=1;jettySize=auto;html=1;" edge="1" parent="1" source="dkCCmT9yHK8t0eKhnpki-51" target="dkCCmT9yHK8t0eKhnpki-103">
          <mxGeometry relative="1" as="geometry" />
        </mxCell>
        <mxCell id="dkCCmT9yHK8t0eKhnpki-50" value="false" style="edgeLabel;html=1;align=center;verticalAlign=middle;resizable=0;points=[];" vertex="1" connectable="0" parent="dkCCmT9yHK8t0eKhnpki-49">
          <mxGeometry x="0.0226" relative="1" as="geometry">
            <mxPoint y="1" as="offset" />
          </mxGeometry>
        </mxCell>
        <mxCell id="dkCCmT9yHK8t0eKhnpki-51" value="choice==2" style="rhombus;whiteSpace=wrap;html=1;rounded=1;" vertex="1" parent="1">
          <mxGeometry x="73.5" y="1870" width="111" height="110" as="geometry" />
        </mxCell>
        <mxCell id="dkCCmT9yHK8t0eKhnpki-52" value="" style="edgeStyle=orthogonalEdgeStyle;rounded=0;orthogonalLoop=1;jettySize=auto;html=1;" edge="1" parent="1" source="dkCCmT9yHK8t0eKhnpki-56" target="dkCCmT9yHK8t0eKhnpki-60">
          <mxGeometry relative="1" as="geometry" />
        </mxCell>
        <mxCell id="dkCCmT9yHK8t0eKhnpki-53" value="true" style="edgeLabel;html=1;align=center;verticalAlign=middle;resizable=0;points=[];" vertex="1" connectable="0" parent="dkCCmT9yHK8t0eKhnpki-52">
          <mxGeometry x="-0.45" relative="1" as="geometry">
            <mxPoint as="offset" />
          </mxGeometry>
        </mxCell>
        <mxCell id="dkCCmT9yHK8t0eKhnpki-54" style="edgeStyle=orthogonalEdgeStyle;rounded=0;orthogonalLoop=1;jettySize=auto;html=1;" edge="1" parent="1" source="dkCCmT9yHK8t0eKhnpki-56">
          <mxGeometry relative="1" as="geometry">
            <mxPoint x="1010" y="990" as="targetPoint" />
            <Array as="points">
              <mxPoint x="351" y="2290" />
              <mxPoint x="2140" y="2290" />
              <mxPoint x="2140" y="980" />
              <mxPoint x="1010" y="980" />
            </Array>
          </mxGeometry>
        </mxCell>
        <mxCell id="dkCCmT9yHK8t0eKhnpki-55" value="false" style="edgeLabel;html=1;align=center;verticalAlign=middle;resizable=0;points=[];" vertex="1" connectable="0" parent="dkCCmT9yHK8t0eKhnpki-54">
          <mxGeometry x="-0.5512" y="-9" relative="1" as="geometry">
            <mxPoint as="offset" />
          </mxGeometry>
        </mxCell>
        <mxCell id="dkCCmT9yHK8t0eKhnpki-56" value="i&amp;lt;row" style="rhombus;whiteSpace=wrap;html=1;rounded=1;" vertex="1" parent="1">
          <mxGeometry x="310" y="1880" width="80" height="80" as="geometry" />
        </mxCell>
        <mxCell id="dkCCmT9yHK8t0eKhnpki-57" value="" style="edgeStyle=orthogonalEdgeStyle;rounded=0;orthogonalLoop=1;jettySize=auto;html=1;entryX=0;entryY=0.5;entryDx=0;entryDy=0;" edge="1" parent="1" source="dkCCmT9yHK8t0eKhnpki-60" target="dkCCmT9yHK8t0eKhnpki-66">
          <mxGeometry relative="1" as="geometry">
            <mxPoint x="700" y="1920" as="targetPoint" />
          </mxGeometry>
        </mxCell>
        <mxCell id="dkCCmT9yHK8t0eKhnpki-58" value="true" style="edgeLabel;html=1;align=center;verticalAlign=middle;resizable=0;points=[];" vertex="1" connectable="0" parent="dkCCmT9yHK8t0eKhnpki-57">
          <mxGeometry x="-0.2889" y="3" relative="1" as="geometry">
            <mxPoint as="offset" />
          </mxGeometry>
        </mxCell>
        <mxCell id="dkCCmT9yHK8t0eKhnpki-59" value="false" style="edgeStyle=orthogonalEdgeStyle;rounded=0;orthogonalLoop=1;jettySize=auto;html=1;entryX=1;entryY=0.5;entryDx=0;entryDy=0;" edge="1" parent="1" source="dkCCmT9yHK8t0eKhnpki-60" target="dkCCmT9yHK8t0eKhnpki-64">
          <mxGeometry relative="1" as="geometry">
            <Array as="points">
              <mxPoint x="551.06" y="1800" />
              <mxPoint x="430.06" y="1800" />
            </Array>
          </mxGeometry>
        </mxCell>
        <mxCell id="dkCCmT9yHK8t0eKhnpki-60" value="j&amp;lt;col" style="rhombus;whiteSpace=wrap;html=1;rounded=1;" vertex="1" parent="1">
          <mxGeometry x="511.06" y="1880" width="80" height="80" as="geometry" />
        </mxCell>
        <mxCell id="dkCCmT9yHK8t0eKhnpki-61" style="edgeStyle=orthogonalEdgeStyle;rounded=0;orthogonalLoop=1;jettySize=auto;html=1;" edge="1" parent="1" source="dkCCmT9yHK8t0eKhnpki-62">
          <mxGeometry relative="1" as="geometry">
            <mxPoint x="480" y="1920" as="targetPoint" />
            <Array as="points">
              <mxPoint x="1620" y="2160" />
              <mxPoint x="480" y="2160" />
            </Array>
          </mxGeometry>
        </mxCell>
        <mxCell id="dkCCmT9yHK8t0eKhnpki-62" value="j++" style="rounded=1;whiteSpace=wrap;html=1;" vertex="1" parent="1">
          <mxGeometry x="1520" y="1890" width="120" height="60" as="geometry" />
        </mxCell>
        <mxCell id="dkCCmT9yHK8t0eKhnpki-63" style="edgeStyle=orthogonalEdgeStyle;rounded=0;orthogonalLoop=1;jettySize=auto;html=1;entryX=0.5;entryY=0;entryDx=0;entryDy=0;" edge="1" parent="1" source="dkCCmT9yHK8t0eKhnpki-64" target="dkCCmT9yHK8t0eKhnpki-56">
          <mxGeometry relative="1" as="geometry">
            <mxPoint x="350.06" y="1850" as="targetPoint" />
            <Array as="points">
              <mxPoint x="350.06" y="1780" />
              <mxPoint x="351.06" y="1820" />
              <mxPoint x="350.06" y="1820" />
            </Array>
          </mxGeometry>
        </mxCell>
        <mxCell id="dkCCmT9yHK8t0eKhnpki-64" value="i++" style="whiteSpace=wrap;html=1;rounded=1;" vertex="1" parent="1">
          <mxGeometry x="310" y="1780" width="120" height="60" as="geometry" />
        </mxCell>
        <mxCell id="dkCCmT9yHK8t0eKhnpki-65" value="" style="edgeStyle=orthogonalEdgeStyle;rounded=0;orthogonalLoop=1;jettySize=auto;html=1;" edge="1" parent="1" source="dkCCmT9yHK8t0eKhnpki-66" target="dkCCmT9yHK8t0eKhnpki-71">
          <mxGeometry relative="1" as="geometry" />
        </mxCell>
        <mxCell id="dkCCmT9yHK8t0eKhnpki-66" value="arr[i][j]&lt;br&gt;f=i-1" style="shape=parallelogram;perimeter=parallelogramPerimeter;whiteSpace=wrap;html=1;fixedSize=1;" vertex="1" parent="1">
          <mxGeometry x="690" y="1890" width="120" height="60" as="geometry" />
        </mxCell>
        <mxCell id="dkCCmT9yHK8t0eKhnpki-67" value="" style="edgeStyle=orthogonalEdgeStyle;rounded=0;orthogonalLoop=1;jettySize=auto;html=1;" edge="1" parent="1" source="dkCCmT9yHK8t0eKhnpki-71" target="dkCCmT9yHK8t0eKhnpki-73">
          <mxGeometry relative="1" as="geometry" />
        </mxCell>
        <mxCell id="dkCCmT9yHK8t0eKhnpki-68" value="true" style="edgeLabel;html=1;align=center;verticalAlign=middle;resizable=0;points=[];" vertex="1" connectable="0" parent="dkCCmT9yHK8t0eKhnpki-67">
          <mxGeometry x="-0.2099" y="6" relative="1" as="geometry">
            <mxPoint as="offset" />
          </mxGeometry>
        </mxCell>
        <mxCell id="dkCCmT9yHK8t0eKhnpki-69" value="" style="edgeStyle=orthogonalEdgeStyle;rounded=0;orthogonalLoop=1;jettySize=auto;html=1;" edge="1" parent="1" source="dkCCmT9yHK8t0eKhnpki-71" target="dkCCmT9yHK8t0eKhnpki-75">
          <mxGeometry relative="1" as="geometry" />
        </mxCell>
        <mxCell id="dkCCmT9yHK8t0eKhnpki-70" value="false" style="edgeLabel;html=1;align=center;verticalAlign=middle;resizable=0;points=[];" vertex="1" connectable="0" parent="dkCCmT9yHK8t0eKhnpki-69">
          <mxGeometry x="-0.2061" y="1" relative="1" as="geometry">
            <mxPoint as="offset" />
          </mxGeometry>
        </mxCell>
        <mxCell id="dkCCmT9yHK8t0eKhnpki-71" value="&#xa;&lt;div style=&quot;color: rgb(212, 212, 212); background-color: rgb(30, 30, 30); font-family: Consolas, &amp;quot;Courier New&amp;quot;, monospace; font-weight: normal; font-size: 14px; line-height: 19px;&quot;&gt;&lt;div&gt;&lt;span style=&quot;color: #c8c8c8;&quot;&gt;f&lt;/span&gt;&lt;span style=&quot;color: #d4d4d4;&quot;&gt;&amp;gt;=&lt;/span&gt;&lt;span style=&quot;color: #b5cea8;&quot;&gt;0&lt;/span&gt;&lt;span style=&quot;color: #d4d4d4;&quot;&gt;&amp;amp;&amp;amp;&lt;/span&gt;&lt;span style=&quot;color: #c8c8c8;&quot;&gt;key&lt;/span&gt;&lt;span style=&quot;color: #d4d4d4;&quot;&gt;&amp;lt;&lt;/span&gt;&lt;span style=&quot;color: #c8c8c8;&quot;&gt;arr&lt;/span&gt;&lt;span style=&quot;color: #d4d4d4;&quot;&gt;[&lt;/span&gt;&lt;span style=&quot;color: #c8c8c8;&quot;&gt;i&lt;/span&gt;&lt;span style=&quot;color: #d4d4d4;&quot;&gt;][&lt;/span&gt;&lt;span style=&quot;color: #c8c8c8;&quot;&gt;f&lt;/span&gt;&lt;/div&gt;&lt;/div&gt;&#xa;&#xa;" style="rhombus;whiteSpace=wrap;html=1;" vertex="1" parent="1">
          <mxGeometry x="870" y="1850" width="180" height="140" as="geometry" />
        </mxCell>
        <mxCell id="dkCCmT9yHK8t0eKhnpki-72" style="edgeStyle=orthogonalEdgeStyle;rounded=0;orthogonalLoop=1;jettySize=auto;html=1;" edge="1" parent="1" source="dkCCmT9yHK8t0eKhnpki-73">
          <mxGeometry relative="1" as="geometry">
            <mxPoint x="830" y="1920" as="targetPoint" />
          </mxGeometry>
        </mxCell>
        <mxCell id="dkCCmT9yHK8t0eKhnpki-73" value="&lt;br&gt;&lt;div style=&quot;color: rgb(212, 212, 212); background-color: rgb(30, 30, 30); font-family: Consolas, &amp;quot;Courier New&amp;quot;, monospace; font-weight: normal; font-size: 14px; line-height: 19px;&quot;&gt;&lt;div&gt;&lt;span style=&quot;color: #d4d4d4;&quot;&gt;&amp;nbsp; &lt;/span&gt;&lt;span style=&quot;color: #c8c8c8;&quot;&gt;arr&lt;/span&gt;&lt;span style=&quot;color: #d4d4d4;&quot;&gt;[&lt;/span&gt;&lt;span style=&quot;color: #c8c8c8;&quot;&gt;i&lt;/span&gt;&lt;span style=&quot;color: #d4d4d4;&quot;&gt;][&lt;/span&gt;&lt;span style=&quot;color: #c8c8c8;&quot;&gt;f&lt;/span&gt;&lt;span style=&quot;color: #d4d4d4;&quot;&gt;+&lt;/span&gt;&lt;span style=&quot;color: #b5cea8;&quot;&gt;1&lt;/span&gt;&lt;span style=&quot;color: #d4d4d4;&quot;&gt;]=&lt;/span&gt;&lt;span style=&quot;color: #c8c8c8;&quot;&gt;arr&lt;/span&gt;&lt;span style=&quot;color: #d4d4d4;&quot;&gt;[&lt;/span&gt;&lt;span style=&quot;color: #c8c8c8;&quot;&gt;i&lt;/span&gt;&lt;span style=&quot;color: #d4d4d4;&quot;&gt;][&lt;/span&gt;&lt;span style=&quot;color: #c8c8c8;&quot;&gt;f&lt;/span&gt;&lt;span style=&quot;color: #d4d4d4;&quot;&gt;]&lt;/span&gt;&lt;/div&gt;&lt;div&gt;&amp;nbsp; &amp;nbsp;&lt;span style=&quot;color: rgb(200, 200, 200);&quot;&gt;f&lt;/span&gt;-=&lt;span style=&quot;color: rgb(181, 206, 168);&quot;&gt;1&lt;/span&gt;;&lt;/div&gt;&lt;/div&gt;&lt;br&gt;" style="whiteSpace=wrap;html=1;" vertex="1" parent="1">
          <mxGeometry x="850" y="2070" width="220" height="60" as="geometry" />
        </mxCell>
        <mxCell id="dkCCmT9yHK8t0eKhnpki-74" style="edgeStyle=orthogonalEdgeStyle;rounded=0;orthogonalLoop=1;jettySize=auto;html=1;entryX=0;entryY=0.5;entryDx=0;entryDy=0;" edge="1" parent="1" source="dkCCmT9yHK8t0eKhnpki-75" target="dkCCmT9yHK8t0eKhnpki-62">
          <mxGeometry relative="1" as="geometry" />
        </mxCell>
        <mxCell id="dkCCmT9yHK8t0eKhnpki-75" value="&#xa;&lt;div style=&quot;color: rgb(212, 212, 212); background-color: rgb(30, 30, 30); font-family: Consolas, &amp;quot;Courier New&amp;quot;, monospace; font-weight: normal; font-size: 14px; line-height: 19px;&quot;&gt;&lt;div&gt;&lt;span style=&quot;color: #d4d4d4;&quot;&gt;&amp;nbsp;&lt;/span&gt;&lt;span style=&quot;color: #c8c8c8;&quot;&gt;arr&lt;/span&gt;&lt;span style=&quot;color: #d4d4d4;&quot;&gt;[&lt;/span&gt;&lt;span style=&quot;color: #c8c8c8;&quot;&gt;i&lt;/span&gt;&lt;span style=&quot;color: #d4d4d4;&quot;&gt;][&lt;/span&gt;&lt;span style=&quot;color: #c8c8c8;&quot;&gt;f&lt;/span&gt;&lt;span style=&quot;color: #d4d4d4;&quot;&gt;+&lt;/span&gt;&lt;span style=&quot;color: #b5cea8;&quot;&gt;1&lt;/span&gt;&lt;span style=&quot;color: #d4d4d4;&quot;&gt;]=&lt;/span&gt;&lt;span style=&quot;color: #c8c8c8;&quot;&gt;key&lt;/span&gt;&lt;span style=&quot;color: #d4d4d4;&quot;&gt;;&lt;/span&gt;&lt;/div&gt;&lt;/div&gt;&#xa;&#xa;" style="whiteSpace=wrap;html=1;" vertex="1" parent="1">
          <mxGeometry x="1160" y="1890" width="190" height="60" as="geometry" />
        </mxCell>
        <mxCell id="dkCCmT9yHK8t0eKhnpki-76" value="" style="edgeStyle=orthogonalEdgeStyle;rounded=0;orthogonalLoop=1;jettySize=auto;html=1;" edge="1" parent="1" source="dkCCmT9yHK8t0eKhnpki-80" target="dkCCmT9yHK8t0eKhnpki-84">
          <mxGeometry relative="1" as="geometry" />
        </mxCell>
        <mxCell id="dkCCmT9yHK8t0eKhnpki-77" value="true" style="edgeLabel;html=1;align=center;verticalAlign=middle;resizable=0;points=[];" vertex="1" connectable="0" parent="dkCCmT9yHK8t0eKhnpki-76">
          <mxGeometry x="-0.45" relative="1" as="geometry">
            <mxPoint as="offset" />
          </mxGeometry>
        </mxCell>
        <mxCell id="dkCCmT9yHK8t0eKhnpki-78" style="edgeStyle=orthogonalEdgeStyle;rounded=0;orthogonalLoop=1;jettySize=auto;html=1;" edge="1" parent="1" source="dkCCmT9yHK8t0eKhnpki-80">
          <mxGeometry relative="1" as="geometry">
            <mxPoint x="2140" y="2142.5" as="targetPoint" />
            <Array as="points">
              <mxPoint x="361" y="2960" />
              <mxPoint x="2140" y="2960" />
            </Array>
          </mxGeometry>
        </mxCell>
        <mxCell id="dkCCmT9yHK8t0eKhnpki-79" value="false" style="edgeLabel;html=1;align=center;verticalAlign=middle;resizable=0;points=[];" vertex="1" connectable="0" parent="dkCCmT9yHK8t0eKhnpki-78">
          <mxGeometry x="-0.8626" y="-1" relative="1" as="geometry">
            <mxPoint x="-1" y="-1" as="offset" />
          </mxGeometry>
        </mxCell>
        <mxCell id="dkCCmT9yHK8t0eKhnpki-80" value="i&amp;lt;col" style="rhombus;whiteSpace=wrap;html=1;rounded=1;" vertex="1" parent="1">
          <mxGeometry x="320" y="2500" width="80" height="80" as="geometry" />
        </mxCell>
        <mxCell id="dkCCmT9yHK8t0eKhnpki-81" value="" style="edgeStyle=orthogonalEdgeStyle;rounded=0;orthogonalLoop=1;jettySize=auto;html=1;entryX=0;entryY=0.5;entryDx=0;entryDy=0;" edge="1" parent="1" source="dkCCmT9yHK8t0eKhnpki-84" target="dkCCmT9yHK8t0eKhnpki-90">
          <mxGeometry relative="1" as="geometry">
            <mxPoint x="710" y="2540" as="targetPoint" />
          </mxGeometry>
        </mxCell>
        <mxCell id="dkCCmT9yHK8t0eKhnpki-82" value="true" style="edgeLabel;html=1;align=center;verticalAlign=middle;resizable=0;points=[];" vertex="1" connectable="0" parent="dkCCmT9yHK8t0eKhnpki-81">
          <mxGeometry x="-0.2889" y="3" relative="1" as="geometry">
            <mxPoint as="offset" />
          </mxGeometry>
        </mxCell>
        <mxCell id="dkCCmT9yHK8t0eKhnpki-83" value="false" style="edgeStyle=orthogonalEdgeStyle;rounded=0;orthogonalLoop=1;jettySize=auto;html=1;entryX=1;entryY=0.5;entryDx=0;entryDy=0;" edge="1" parent="1" source="dkCCmT9yHK8t0eKhnpki-84" target="dkCCmT9yHK8t0eKhnpki-88">
          <mxGeometry relative="1" as="geometry">
            <Array as="points">
              <mxPoint x="561.06" y="2420" />
              <mxPoint x="440.06" y="2420" />
            </Array>
          </mxGeometry>
        </mxCell>
        <mxCell id="dkCCmT9yHK8t0eKhnpki-84" value="j&amp;lt;row" style="rhombus;whiteSpace=wrap;html=1;rounded=1;" vertex="1" parent="1">
          <mxGeometry x="521.06" y="2500" width="80" height="80" as="geometry" />
        </mxCell>
        <mxCell id="dkCCmT9yHK8t0eKhnpki-85" style="edgeStyle=orthogonalEdgeStyle;rounded=0;orthogonalLoop=1;jettySize=auto;html=1;entryX=0.417;entryY=0.963;entryDx=0;entryDy=0;entryPerimeter=0;" edge="1" parent="1" source="dkCCmT9yHK8t0eKhnpki-86" target="dkCCmT9yHK8t0eKhnpki-84">
          <mxGeometry relative="1" as="geometry">
            <mxPoint x="650" y="2840" as="targetPoint" />
            <Array as="points">
              <mxPoint x="1630" y="2780" />
              <mxPoint x="554" y="2780" />
            </Array>
          </mxGeometry>
        </mxCell>
        <mxCell id="dkCCmT9yHK8t0eKhnpki-86" value="j++" style="rounded=1;whiteSpace=wrap;html=1;" vertex="1" parent="1">
          <mxGeometry x="1530" y="2510" width="120" height="60" as="geometry" />
        </mxCell>
        <mxCell id="dkCCmT9yHK8t0eKhnpki-87" style="edgeStyle=orthogonalEdgeStyle;rounded=0;orthogonalLoop=1;jettySize=auto;html=1;entryX=0.5;entryY=0;entryDx=0;entryDy=0;" edge="1" parent="1" source="dkCCmT9yHK8t0eKhnpki-88" target="dkCCmT9yHK8t0eKhnpki-80">
          <mxGeometry relative="1" as="geometry">
            <mxPoint x="360.06" y="2470" as="targetPoint" />
            <Array as="points">
              <mxPoint x="360.06" y="2400" />
              <mxPoint x="361.06" y="2440" />
              <mxPoint x="360.06" y="2440" />
            </Array>
          </mxGeometry>
        </mxCell>
        <mxCell id="dkCCmT9yHK8t0eKhnpki-88" value="i++" style="whiteSpace=wrap;html=1;rounded=1;" vertex="1" parent="1">
          <mxGeometry x="320" y="2400" width="120" height="60" as="geometry" />
        </mxCell>
        <mxCell id="dkCCmT9yHK8t0eKhnpki-89" value="" style="edgeStyle=orthogonalEdgeStyle;rounded=0;orthogonalLoop=1;jettySize=auto;html=1;" edge="1" parent="1" source="dkCCmT9yHK8t0eKhnpki-90" target="dkCCmT9yHK8t0eKhnpki-95">
          <mxGeometry relative="1" as="geometry" />
        </mxCell>
        <mxCell id="dkCCmT9yHK8t0eKhnpki-90" value="arr[f][i]&lt;br&gt;f=i-1" style="shape=parallelogram;perimeter=parallelogramPerimeter;whiteSpace=wrap;html=1;fixedSize=1;" vertex="1" parent="1">
          <mxGeometry x="700" y="2510" width="120" height="60" as="geometry" />
        </mxCell>
        <mxCell id="dkCCmT9yHK8t0eKhnpki-91" value="" style="edgeStyle=orthogonalEdgeStyle;rounded=0;orthogonalLoop=1;jettySize=auto;html=1;" edge="1" parent="1" source="dkCCmT9yHK8t0eKhnpki-95" target="dkCCmT9yHK8t0eKhnpki-97">
          <mxGeometry relative="1" as="geometry" />
        </mxCell>
        <mxCell id="dkCCmT9yHK8t0eKhnpki-92" value="true" style="edgeLabel;html=1;align=center;verticalAlign=middle;resizable=0;points=[];" vertex="1" connectable="0" parent="dkCCmT9yHK8t0eKhnpki-91">
          <mxGeometry x="-0.2099" y="6" relative="1" as="geometry">
            <mxPoint as="offset" />
          </mxGeometry>
        </mxCell>
        <mxCell id="dkCCmT9yHK8t0eKhnpki-93" value="" style="edgeStyle=orthogonalEdgeStyle;rounded=0;orthogonalLoop=1;jettySize=auto;html=1;" edge="1" parent="1" source="dkCCmT9yHK8t0eKhnpki-95" target="dkCCmT9yHK8t0eKhnpki-99">
          <mxGeometry relative="1" as="geometry" />
        </mxCell>
        <mxCell id="dkCCmT9yHK8t0eKhnpki-94" value="false" style="edgeLabel;html=1;align=center;verticalAlign=middle;resizable=0;points=[];" vertex="1" connectable="0" parent="dkCCmT9yHK8t0eKhnpki-93">
          <mxGeometry x="-0.2061" y="1" relative="1" as="geometry">
            <mxPoint as="offset" />
          </mxGeometry>
        </mxCell>
        <mxCell id="dkCCmT9yHK8t0eKhnpki-95" value="&lt;div style=&quot;color: rgb(212, 212, 212); background-color: rgb(30, 30, 30); font-family: Consolas, &amp;quot;Courier New&amp;quot;, monospace; font-size: 14px; line-height: 19px;&quot;&gt;f&amp;gt;=&lt;span style=&quot;color: #b5cea8;&quot;&gt;0&lt;/span&gt;&amp;amp;&amp;amp;&lt;span style=&quot;color: #c8c8c8;&quot;&gt;key&lt;/span&gt;&amp;gt;&lt;span style=&quot;color: #c8c8c8;&quot;&gt;arr&lt;/span&gt;[&lt;span style=&quot;color: #c8c8c8;&quot;&gt;f&lt;/span&gt;][&lt;span style=&quot;color: #c8c8c8;&quot;&gt;i&lt;/span&gt;]&lt;/div&gt;" style="rhombus;whiteSpace=wrap;html=1;" vertex="1" parent="1">
          <mxGeometry x="880" y="2470" width="180" height="140" as="geometry" />
        </mxCell>
        <mxCell id="dkCCmT9yHK8t0eKhnpki-96" style="edgeStyle=orthogonalEdgeStyle;rounded=0;orthogonalLoop=1;jettySize=auto;html=1;" edge="1" parent="1" source="dkCCmT9yHK8t0eKhnpki-97">
          <mxGeometry relative="1" as="geometry">
            <mxPoint x="840" y="2540" as="targetPoint" />
          </mxGeometry>
        </mxCell>
        <mxCell id="dkCCmT9yHK8t0eKhnpki-97" value="&lt;div style=&quot;color: rgb(212, 212, 212); background-color: rgb(30, 30, 30); font-family: Consolas, &amp;quot;Courier New&amp;quot;, monospace; font-size: 14px; line-height: 19px;&quot;&gt;&lt;div&gt;&amp;nbsp;arr[&lt;span style=&quot;color: #c8c8c8;&quot;&gt;f&lt;/span&gt;+&lt;span style=&quot;color: #b5cea8;&quot;&gt;1&lt;/span&gt;][&lt;span style=&quot;color: #c8c8c8;&quot;&gt;i&lt;/span&gt;]=&lt;span style=&quot;color: #c8c8c8;&quot;&gt;arr&lt;/span&gt;[&lt;span style=&quot;color: #c8c8c8;&quot;&gt;f&lt;/span&gt;][&lt;span style=&quot;color: #c8c8c8;&quot;&gt;i&lt;/span&gt;]&lt;/div&gt;&lt;div&gt;&amp;nbsp;&amp;nbsp;&lt;span style=&quot;color: rgb(200, 200, 200);&quot;&gt;f&lt;/span&gt;-=&lt;span style=&quot;color: rgb(181, 206, 168);&quot;&gt;1&lt;/span&gt;;&lt;/div&gt;&lt;/div&gt;" style="whiteSpace=wrap;html=1;" vertex="1" parent="1">
          <mxGeometry x="860" y="2690" width="220" height="60" as="geometry" />
        </mxCell>
        <mxCell id="dkCCmT9yHK8t0eKhnpki-98" style="edgeStyle=orthogonalEdgeStyle;rounded=0;orthogonalLoop=1;jettySize=auto;html=1;entryX=0;entryY=0.5;entryDx=0;entryDy=0;" edge="1" parent="1" source="dkCCmT9yHK8t0eKhnpki-99" target="dkCCmT9yHK8t0eKhnpki-86">
          <mxGeometry relative="1" as="geometry" />
        </mxCell>
        <mxCell id="dkCCmT9yHK8t0eKhnpki-99" value="&lt;div style=&quot;color: rgb(212, 212, 212); background-color: rgb(30, 30, 30); font-family: Consolas, &amp;quot;Courier New&amp;quot;, monospace; font-size: 14px; line-height: 19px;&quot;&gt;arr[&lt;span style=&quot;color: #c8c8c8;&quot;&gt;f&lt;/span&gt;+&lt;span style=&quot;color: #b5cea8;&quot;&gt;1&lt;/span&gt;][&lt;span style=&quot;color: #c8c8c8;&quot;&gt;i&lt;/span&gt;]=&lt;span style=&quot;color: #c8c8c8;&quot;&gt;key&lt;/span&gt;;&lt;/div&gt;" style="whiteSpace=wrap;html=1;" vertex="1" parent="1">
          <mxGeometry x="1170" y="2510" width="190" height="60" as="geometry" />
        </mxCell>
        <mxCell id="dkCCmT9yHK8t0eKhnpki-100" style="edgeStyle=orthogonalEdgeStyle;rounded=0;orthogonalLoop=1;jettySize=auto;html=1;" edge="1" parent="1" source="dkCCmT9yHK8t0eKhnpki-103" target="dkCCmT9yHK8t0eKhnpki-80">
          <mxGeometry relative="1" as="geometry" />
        </mxCell>
        <mxCell id="dkCCmT9yHK8t0eKhnpki-101" value="true" style="edgeLabel;html=1;align=center;verticalAlign=middle;resizable=0;points=[];" vertex="1" connectable="0" parent="dkCCmT9yHK8t0eKhnpki-100">
          <mxGeometry x="-0.0481" y="3" relative="1" as="geometry">
            <mxPoint as="offset" />
          </mxGeometry>
        </mxCell>
        <mxCell id="dkCCmT9yHK8t0eKhnpki-102" value="" style="edgeStyle=orthogonalEdgeStyle;rounded=0;orthogonalLoop=1;jettySize=auto;html=1;" edge="1" parent="1" source="dkCCmT9yHK8t0eKhnpki-103" target="dkCCmT9yHK8t0eKhnpki-106">
          <mxGeometry relative="1" as="geometry" />
        </mxCell>
        <mxCell id="dkCCmT9yHK8t0eKhnpki-103" value="choice==3" style="rhombus;whiteSpace=wrap;html=1;rounded=1;" vertex="1" parent="1">
          <mxGeometry x="73.5" y="2510" width="111" height="110" as="geometry" />
        </mxCell>
        <mxCell id="dkCCmT9yHK8t0eKhnpki-104" value="" style="edgeStyle=orthogonalEdgeStyle;rounded=0;orthogonalLoop=1;jettySize=auto;html=1;" edge="1" parent="1" source="dkCCmT9yHK8t0eKhnpki-106" target="dkCCmT9yHK8t0eKhnpki-107">
          <mxGeometry relative="1" as="geometry" />
        </mxCell>
        <mxCell id="dkCCmT9yHK8t0eKhnpki-105" value="" style="edgeStyle=orthogonalEdgeStyle;rounded=0;orthogonalLoop=1;jettySize=auto;html=1;" edge="1" parent="1" source="dkCCmT9yHK8t0eKhnpki-106" target="dkCCmT9yHK8t0eKhnpki-109">
          <mxGeometry relative="1" as="geometry">
            <mxPoint x="129" y="3160" as="targetPoint" />
          </mxGeometry>
        </mxCell>
        <mxCell id="dkCCmT9yHK8t0eKhnpki-106" value="choice==4" style="rhombus;whiteSpace=wrap;html=1;rounded=1;" vertex="1" parent="1">
          <mxGeometry x="73.5" y="2970" width="111" height="110" as="geometry" />
        </mxCell>
        <mxCell id="dkCCmT9yHK8t0eKhnpki-107" value="end" style="ellipse;whiteSpace=wrap;html=1;rounded=1;" vertex="1" parent="1">
          <mxGeometry x="450" y="3050" width="121" height="55" as="geometry" />
        </mxCell>
        <mxCell id="dkCCmT9yHK8t0eKhnpki-108" style="edgeStyle=orthogonalEdgeStyle;rounded=0;orthogonalLoop=1;jettySize=auto;html=1;exitX=1;exitY=0.5;exitDx=0;exitDy=0;" edge="1" parent="1" source="dkCCmT9yHK8t0eKhnpki-109">
          <mxGeometry relative="1" as="geometry">
            <mxPoint x="2138.5714285714284" y="2950" as="targetPoint" />
            <mxPoint x="189" y="3160" as="sourcePoint" />
          </mxGeometry>
        </mxCell>
        <mxCell id="dkCCmT9yHK8t0eKhnpki-109" value="Vui long nhap 1-4" style="shape=parallelogram;perimeter=parallelogramPerimeter;whiteSpace=wrap;html=1;fixedSize=1;" vertex="1" parent="1">
          <mxGeometry x="69" y="3130" width="120" height="60" as="geometry" />
        </mxCell>
      </root>
    </mxGraphModel>
  </diagram>
  <diagram id="P_NlGGonxaST8zyWaGz7" name="BT3">
    <mxGraphModel dx="1290" dy="534" grid="1" gridSize="10" guides="1" tooltips="1" connect="1" arrows="1" fold="1" page="1" pageScale="1" pageWidth="827" pageHeight="1169" math="0" shadow="0">
      <root>
        <mxCell id="0" />
        <mxCell id="1" parent="0" />
        <mxCell id="MDlEpgOIPJXAIxuBi_LA-1" style="edgeStyle=orthogonalEdgeStyle;rounded=0;orthogonalLoop=1;jettySize=auto;html=1;" edge="1" parent="1" source="MDlEpgOIPJXAIxuBi_LA-2" target="MDlEpgOIPJXAIxuBi_LA-4">
          <mxGeometry relative="1" as="geometry" />
        </mxCell>
        <mxCell id="MDlEpgOIPJXAIxuBi_LA-2" value="start" style="ellipse;whiteSpace=wrap;html=1;" vertex="1" parent="1">
          <mxGeometry x="290" y="170" width="120" height="80" as="geometry" />
        </mxCell>
        <mxCell id="MDlEpgOIPJXAIxuBi_LA-3" style="edgeStyle=orthogonalEdgeStyle;rounded=0;orthogonalLoop=1;jettySize=auto;html=1;entryX=0.5;entryY=0;entryDx=0;entryDy=0;" edge="1" parent="1" source="MDlEpgOIPJXAIxuBi_LA-4" target="MDlEpgOIPJXAIxuBi_LA-6">
          <mxGeometry relative="1" as="geometry" />
        </mxCell>
        <mxCell id="MDlEpgOIPJXAIxuBi_LA-4" value="n, i, mid,j, end, start, choice, find,size" style="shape=parallelogram;perimeter=parallelogramPerimeter;whiteSpace=wrap;html=1;fixedSize=1;" vertex="1" parent="1">
          <mxGeometry x="240" y="360" width="220" height="80" as="geometry" />
        </mxCell>
        <mxCell id="MDlEpgOIPJXAIxuBi_LA-5" value="" style="edgeStyle=orthogonalEdgeStyle;rounded=0;orthogonalLoop=1;jettySize=auto;html=1;" edge="1" parent="1" source="MDlEpgOIPJXAIxuBi_LA-6" target="MDlEpgOIPJXAIxuBi_LA-9">
          <mxGeometry relative="1" as="geometry" />
        </mxCell>
        <mxCell id="MDlEpgOIPJXAIxuBi_LA-6" value="i=1&lt;br&gt;int arr[n]" style="rounded=0;whiteSpace=wrap;html=1;" vertex="1" parent="1">
          <mxGeometry x="290" y="520" width="120" height="60" as="geometry" />
        </mxCell>
        <mxCell id="MDlEpgOIPJXAIxuBi_LA-7" value="" style="edgeStyle=orthogonalEdgeStyle;rounded=0;orthogonalLoop=1;jettySize=auto;html=1;" edge="1" parent="1" source="MDlEpgOIPJXAIxuBi_LA-9" target="MDlEpgOIPJXAIxuBi_LA-11">
          <mxGeometry relative="1" as="geometry" />
        </mxCell>
        <mxCell id="MDlEpgOIPJXAIxuBi_LA-8" value="true" style="edgeLabel;html=1;align=center;verticalAlign=middle;resizable=0;points=[];" vertex="1" connectable="0" parent="MDlEpgOIPJXAIxuBi_LA-7">
          <mxGeometry x="-0.425" y="-4" relative="1" as="geometry">
            <mxPoint as="offset" />
          </mxGeometry>
        </mxCell>
        <mxCell id="MDlEpgOIPJXAIxuBi_LA-9" value="i&amp;lt;size" style="rhombus;whiteSpace=wrap;html=1;" vertex="1" parent="1">
          <mxGeometry x="310" y="640" width="80" height="80" as="geometry" />
        </mxCell>
        <mxCell id="MDlEpgOIPJXAIxuBi_LA-10" value="" style="edgeStyle=orthogonalEdgeStyle;rounded=0;orthogonalLoop=1;jettySize=auto;html=1;" edge="1" parent="1" source="MDlEpgOIPJXAIxuBi_LA-11" target="MDlEpgOIPJXAIxuBi_LA-16">
          <mxGeometry relative="1" as="geometry" />
        </mxCell>
        <mxCell id="MDlEpgOIPJXAIxuBi_LA-11" value="int key=arr[i]&lt;br&gt;j=i-1" style="rounded=0;whiteSpace=wrap;html=1;" vertex="1" parent="1">
          <mxGeometry x="290" y="760" width="120" height="60" as="geometry" />
        </mxCell>
        <mxCell id="MDlEpgOIPJXAIxuBi_LA-12" value="" style="edgeStyle=orthogonalEdgeStyle;rounded=0;orthogonalLoop=1;jettySize=auto;html=1;" edge="1" parent="1" source="MDlEpgOIPJXAIxuBi_LA-16" target="MDlEpgOIPJXAIxuBi_LA-18">
          <mxGeometry relative="1" as="geometry" />
        </mxCell>
        <mxCell id="MDlEpgOIPJXAIxuBi_LA-13" value="true" style="edgeLabel;html=1;align=center;verticalAlign=middle;resizable=0;points=[];" vertex="1" connectable="0" parent="MDlEpgOIPJXAIxuBi_LA-12">
          <mxGeometry x="-0.375" y="1" relative="1" as="geometry">
            <mxPoint y="1" as="offset" />
          </mxGeometry>
        </mxCell>
        <mxCell id="MDlEpgOIPJXAIxuBi_LA-14" value="" style="edgeStyle=orthogonalEdgeStyle;rounded=0;orthogonalLoop=1;jettySize=auto;html=1;" edge="1" parent="1" source="MDlEpgOIPJXAIxuBi_LA-16" target="MDlEpgOIPJXAIxuBi_LA-20">
          <mxGeometry relative="1" as="geometry" />
        </mxCell>
        <mxCell id="MDlEpgOIPJXAIxuBi_LA-15" value="false" style="edgeLabel;html=1;align=center;verticalAlign=middle;resizable=0;points=[];" vertex="1" connectable="0" parent="MDlEpgOIPJXAIxuBi_LA-14">
          <mxGeometry x="0.0167" relative="1" as="geometry">
            <mxPoint y="1" as="offset" />
          </mxGeometry>
        </mxCell>
        <mxCell id="MDlEpgOIPJXAIxuBi_LA-16" value="j&amp;gt;=0&amp;amp;&amp;amp;&lt;br&gt;arr[j]&amp;gt;key" style="rhombus;whiteSpace=wrap;html=1;" vertex="1" parent="1">
          <mxGeometry x="500" y="750" width="80" height="80" as="geometry" />
        </mxCell>
        <mxCell id="MDlEpgOIPJXAIxuBi_LA-17" style="edgeStyle=orthogonalEdgeStyle;rounded=0;orthogonalLoop=1;jettySize=auto;html=1;" edge="1" parent="1" source="MDlEpgOIPJXAIxuBi_LA-18">
          <mxGeometry relative="1" as="geometry">
            <mxPoint x="440" y="790" as="targetPoint" />
            <Array as="points">
              <mxPoint x="720" y="890" />
              <mxPoint x="440" y="890" />
            </Array>
          </mxGeometry>
        </mxCell>
        <mxCell id="MDlEpgOIPJXAIxuBi_LA-18" value="arr[j+1]=arr[i]&lt;br&gt;j=j-1" style="rounded=0;whiteSpace=wrap;html=1;" vertex="1" parent="1">
          <mxGeometry x="660" y="760" width="120" height="60" as="geometry" />
        </mxCell>
        <mxCell id="MDlEpgOIPJXAIxuBi_LA-19" style="edgeStyle=orthogonalEdgeStyle;rounded=0;orthogonalLoop=1;jettySize=auto;html=1;" edge="1" parent="1" source="MDlEpgOIPJXAIxuBi_LA-20">
          <mxGeometry relative="1" as="geometry">
            <mxPoint x="350" y="600" as="targetPoint" />
            <Array as="points">
              <mxPoint x="540" y="600" />
            </Array>
          </mxGeometry>
        </mxCell>
        <mxCell id="MDlEpgOIPJXAIxuBi_LA-20" value="arr[j+1]=key" style="rounded=0;whiteSpace=wrap;html=1;" vertex="1" parent="1">
          <mxGeometry x="480" y="630" width="120" height="60" as="geometry" />
        </mxCell>
        <mxCell id="MDlEpgOIPJXAIxuBi_LA-21" value="" style="edgeStyle=orthogonalEdgeStyle;rounded=0;orthogonalLoop=1;jettySize=auto;html=1;" edge="1" parent="1" source="MDlEpgOIPJXAIxuBi_LA-22" target="MDlEpgOIPJXAIxuBi_LA-26">
          <mxGeometry relative="1" as="geometry" />
        </mxCell>
        <mxCell id="MDlEpgOIPJXAIxuBi_LA-22" value="menu" style="rounded=0;whiteSpace=wrap;html=1;shape=parallelogram;perimeter=parallelogramPerimeter;fixedSize=1;" vertex="1" parent="1">
          <mxGeometry x="300" y="910" width="120" height="60" as="geometry" />
        </mxCell>
        <mxCell id="MDlEpgOIPJXAIxuBi_LA-23" style="edgeStyle=orthogonalEdgeStyle;rounded=0;orthogonalLoop=1;jettySize=auto;html=1;entryX=0;entryY=0.5;entryDx=0;entryDy=0;" edge="1" parent="1" source="MDlEpgOIPJXAIxuBi_LA-9" target="MDlEpgOIPJXAIxuBi_LA-22">
          <mxGeometry relative="1" as="geometry">
            <Array as="points">
              <mxPoint x="200" y="680" />
              <mxPoint x="200" y="950" />
              <mxPoint x="300" y="950" />
            </Array>
          </mxGeometry>
        </mxCell>
        <mxCell id="MDlEpgOIPJXAIxuBi_LA-24" value="false" style="edgeLabel;html=1;align=center;verticalAlign=middle;resizable=0;points=[];" vertex="1" connectable="0" parent="MDlEpgOIPJXAIxuBi_LA-23">
          <mxGeometry x="-0.1369" y="-2" relative="1" as="geometry">
            <mxPoint as="offset" />
          </mxGeometry>
        </mxCell>
        <mxCell id="MDlEpgOIPJXAIxuBi_LA-25" value="" style="edgeStyle=orthogonalEdgeStyle;rounded=0;orthogonalLoop=1;jettySize=auto;html=1;" edge="1" parent="1" source="MDlEpgOIPJXAIxuBi_LA-26" target="MDlEpgOIPJXAIxuBi_LA-31">
          <mxGeometry relative="1" as="geometry" />
        </mxCell>
        <mxCell id="MDlEpgOIPJXAIxuBi_LA-26" value="choice" style="shape=parallelogram;perimeter=parallelogramPerimeter;whiteSpace=wrap;html=1;fixedSize=1;" vertex="1" parent="1">
          <mxGeometry x="300" y="1080" width="120" height="60" as="geometry" />
        </mxCell>
        <mxCell id="MDlEpgOIPJXAIxuBi_LA-27" value="" style="edgeStyle=orthogonalEdgeStyle;rounded=0;orthogonalLoop=1;jettySize=auto;html=1;" edge="1" parent="1" source="MDlEpgOIPJXAIxuBi_LA-31" target="MDlEpgOIPJXAIxuBi_LA-36">
          <mxGeometry relative="1" as="geometry" />
        </mxCell>
        <mxCell id="MDlEpgOIPJXAIxuBi_LA-28" value="false" style="edgeLabel;html=1;align=center;verticalAlign=middle;resizable=0;points=[];" vertex="1" connectable="0" parent="MDlEpgOIPJXAIxuBi_LA-27">
          <mxGeometry x="0.0667" y="-2" relative="1" as="geometry">
            <mxPoint as="offset" />
          </mxGeometry>
        </mxCell>
        <mxCell id="MDlEpgOIPJXAIxuBi_LA-29" value="" style="edgeStyle=orthogonalEdgeStyle;rounded=0;orthogonalLoop=1;jettySize=auto;html=1;entryX=0;entryY=0.5;entryDx=0;entryDy=0;" edge="1" parent="1" source="MDlEpgOIPJXAIxuBi_LA-31" target="MDlEpgOIPJXAIxuBi_LA-38">
          <mxGeometry relative="1" as="geometry">
            <mxPoint x="640" y="1110" as="targetPoint" />
          </mxGeometry>
        </mxCell>
        <mxCell id="MDlEpgOIPJXAIxuBi_LA-30" value="true" style="edgeLabel;html=1;align=center;verticalAlign=middle;resizable=0;points=[];" vertex="1" connectable="0" parent="MDlEpgOIPJXAIxuBi_LA-29">
          <mxGeometry x="-0.15" y="3" relative="1" as="geometry">
            <mxPoint as="offset" />
          </mxGeometry>
        </mxCell>
        <mxCell id="MDlEpgOIPJXAIxuBi_LA-31" value="case==1" style="rhombus;whiteSpace=wrap;html=1;" vertex="1" parent="1">
          <mxGeometry x="480" y="1070" width="80" height="80" as="geometry" />
        </mxCell>
        <mxCell id="MDlEpgOIPJXAIxuBi_LA-32" value="" style="edgeStyle=orthogonalEdgeStyle;rounded=0;orthogonalLoop=1;jettySize=auto;html=1;" edge="1" parent="1" source="MDlEpgOIPJXAIxuBi_LA-36" target="MDlEpgOIPJXAIxuBi_LA-47">
          <mxGeometry relative="1" as="geometry" />
        </mxCell>
        <mxCell id="MDlEpgOIPJXAIxuBi_LA-33" value="true" style="edgeLabel;html=1;align=center;verticalAlign=middle;resizable=0;points=[];" vertex="1" connectable="0" parent="MDlEpgOIPJXAIxuBi_LA-32">
          <mxGeometry x="-0.375" y="-1" relative="1" as="geometry">
            <mxPoint as="offset" />
          </mxGeometry>
        </mxCell>
        <mxCell id="MDlEpgOIPJXAIxuBi_LA-34" style="edgeStyle=orthogonalEdgeStyle;rounded=0;orthogonalLoop=1;jettySize=auto;html=1;" edge="1" parent="1" source="MDlEpgOIPJXAIxuBi_LA-36" target="MDlEpgOIPJXAIxuBi_LA-61">
          <mxGeometry relative="1" as="geometry" />
        </mxCell>
        <mxCell id="MDlEpgOIPJXAIxuBi_LA-35" value="false" style="edgeLabel;html=1;align=center;verticalAlign=middle;resizable=0;points=[];" vertex="1" connectable="0" parent="MDlEpgOIPJXAIxuBi_LA-34">
          <mxGeometry x="-0.005" relative="1" as="geometry">
            <mxPoint y="-1" as="offset" />
          </mxGeometry>
        </mxCell>
        <mxCell id="MDlEpgOIPJXAIxuBi_LA-36" value="case==2" style="rhombus;whiteSpace=wrap;html=1;" vertex="1" parent="1">
          <mxGeometry x="480" y="1380" width="80" height="80" as="geometry" />
        </mxCell>
        <mxCell id="MDlEpgOIPJXAIxuBi_LA-37" value="" style="edgeStyle=orthogonalEdgeStyle;rounded=0;orthogonalLoop=1;jettySize=auto;html=1;" edge="1" parent="1" source="MDlEpgOIPJXAIxuBi_LA-38" target="MDlEpgOIPJXAIxuBi_LA-44">
          <mxGeometry relative="1" as="geometry" />
        </mxCell>
        <mxCell id="MDlEpgOIPJXAIxuBi_LA-38" value="i=0" style="rounded=0;whiteSpace=wrap;html=1;" vertex="1" parent="1">
          <mxGeometry x="640" y="1080" width="120" height="60" as="geometry" />
        </mxCell>
        <mxCell id="MDlEpgOIPJXAIxuBi_LA-39" value="arr[i]&lt;br&gt;i++" style="shape=parallelogram;perimeter=parallelogramPerimeter;whiteSpace=wrap;html=1;fixedSize=1;" vertex="1" parent="1">
          <mxGeometry x="950" y="1080" width="120" height="60" as="geometry" />
        </mxCell>
        <mxCell id="MDlEpgOIPJXAIxuBi_LA-40" value="" style="edgeStyle=orthogonalEdgeStyle;rounded=0;orthogonalLoop=1;jettySize=auto;html=1;" edge="1" parent="1" source="MDlEpgOIPJXAIxuBi_LA-44" target="MDlEpgOIPJXAIxuBi_LA-39">
          <mxGeometry relative="1" as="geometry" />
        </mxCell>
        <mxCell id="MDlEpgOIPJXAIxuBi_LA-41" value="true" style="edgeLabel;html=1;align=center;verticalAlign=middle;resizable=0;points=[];" vertex="1" connectable="0" parent="MDlEpgOIPJXAIxuBi_LA-40">
          <mxGeometry x="-0.0571" y="-1" relative="1" as="geometry">
            <mxPoint y="1" as="offset" />
          </mxGeometry>
        </mxCell>
        <mxCell id="MDlEpgOIPJXAIxuBi_LA-42" style="edgeStyle=orthogonalEdgeStyle;rounded=0;orthogonalLoop=1;jettySize=auto;html=1;" edge="1" parent="1" source="MDlEpgOIPJXAIxuBi_LA-44">
          <mxGeometry relative="1" as="geometry">
            <mxPoint x="1940" y="1250" as="targetPoint" />
            <Array as="points">
              <mxPoint x="867" y="1220" />
              <mxPoint x="1681" y="1220" />
            </Array>
          </mxGeometry>
        </mxCell>
        <mxCell id="MDlEpgOIPJXAIxuBi_LA-43" value="false" style="edgeLabel;html=1;align=center;verticalAlign=middle;resizable=0;points=[];" vertex="1" connectable="0" parent="MDlEpgOIPJXAIxuBi_LA-42">
          <mxGeometry x="-0.7196" y="5" relative="1" as="geometry">
            <mxPoint x="1" as="offset" />
          </mxGeometry>
        </mxCell>
        <mxCell id="MDlEpgOIPJXAIxuBi_LA-44" value="i&amp;lt;n" style="rhombus;whiteSpace=wrap;html=1;" vertex="1" parent="1">
          <mxGeometry x="827" y="1070" width="80" height="80" as="geometry" />
        </mxCell>
        <mxCell id="MDlEpgOIPJXAIxuBi_LA-45" value="" style="endArrow=classic;html=1;rounded=0;exitX=0.5;exitY=0;exitDx=0;exitDy=0;" edge="1" parent="1">
          <mxGeometry width="50" height="50" relative="1" as="geometry">
            <mxPoint x="1010" y="1080" as="sourcePoint" />
            <mxPoint x="790" y="1110" as="targetPoint" />
            <Array as="points">
              <mxPoint x="1010" y="1050" />
              <mxPoint x="790" y="1050" />
            </Array>
          </mxGeometry>
        </mxCell>
        <mxCell id="MDlEpgOIPJXAIxuBi_LA-46" value="" style="edgeStyle=orthogonalEdgeStyle;rounded=0;orthogonalLoop=1;jettySize=auto;html=1;" edge="1" parent="1" source="MDlEpgOIPJXAIxuBi_LA-47" target="MDlEpgOIPJXAIxuBi_LA-50">
          <mxGeometry relative="1" as="geometry" />
        </mxCell>
        <mxCell id="MDlEpgOIPJXAIxuBi_LA-47" value="i=0" style="rounded=0;whiteSpace=wrap;html=1;" vertex="1" parent="1">
          <mxGeometry x="670" y="1390" width="120" height="60" as="geometry" />
        </mxCell>
        <mxCell id="MDlEpgOIPJXAIxuBi_LA-48" value="" style="edgeStyle=orthogonalEdgeStyle;rounded=0;orthogonalLoop=1;jettySize=auto;html=1;" edge="1" parent="1" source="MDlEpgOIPJXAIxuBi_LA-50" target="MDlEpgOIPJXAIxuBi_LA-54">
          <mxGeometry relative="1" as="geometry" />
        </mxCell>
        <mxCell id="MDlEpgOIPJXAIxuBi_LA-49" value="true" style="edgeLabel;html=1;align=center;verticalAlign=middle;resizable=0;points=[];" vertex="1" connectable="0" parent="MDlEpgOIPJXAIxuBi_LA-48">
          <mxGeometry x="-0.3111" y="2" relative="1" as="geometry">
            <mxPoint y="1" as="offset" />
          </mxGeometry>
        </mxCell>
        <mxCell id="MDlEpgOIPJXAIxuBi_LA-50" value="i&amp;lt;size" style="rhombus;whiteSpace=wrap;html=1;" vertex="1" parent="1">
          <mxGeometry x="870" y="1380" width="80" height="80" as="geometry" />
        </mxCell>
        <mxCell id="MDlEpgOIPJXAIxuBi_LA-51" value="" style="edgeStyle=orthogonalEdgeStyle;rounded=0;orthogonalLoop=1;jettySize=auto;html=1;" edge="1" parent="1" source="MDlEpgOIPJXAIxuBi_LA-54" target="MDlEpgOIPJXAIxuBi_LA-56">
          <mxGeometry relative="1" as="geometry" />
        </mxCell>
        <mxCell id="MDlEpgOIPJXAIxuBi_LA-52" value="true" style="edgeLabel;html=1;align=center;verticalAlign=middle;resizable=0;points=[];" vertex="1" connectable="0" parent="MDlEpgOIPJXAIxuBi_LA-51">
          <mxGeometry x="-0.167" relative="1" as="geometry">
            <mxPoint y="1" as="offset" />
          </mxGeometry>
        </mxCell>
        <mxCell id="MDlEpgOIPJXAIxuBi_LA-53" style="edgeStyle=orthogonalEdgeStyle;rounded=0;orthogonalLoop=1;jettySize=auto;html=1;" edge="1" parent="1" source="MDlEpgOIPJXAIxuBi_LA-54">
          <mxGeometry relative="1" as="geometry">
            <mxPoint x="820" y="1420" as="targetPoint" />
            <Array as="points">
              <mxPoint x="1080" y="1300" />
              <mxPoint x="820" y="1300" />
            </Array>
          </mxGeometry>
        </mxCell>
        <mxCell id="MDlEpgOIPJXAIxuBi_LA-54" value="arr[i]==find" style="rhombus;whiteSpace=wrap;html=1;" vertex="1" parent="1">
          <mxGeometry x="1040" y="1380" width="80" height="80" as="geometry" />
        </mxCell>
        <mxCell id="MDlEpgOIPJXAIxuBi_LA-55" style="edgeStyle=orthogonalEdgeStyle;rounded=0;orthogonalLoop=1;jettySize=auto;html=1;" edge="1" parent="1" source="MDlEpgOIPJXAIxuBi_LA-56">
          <mxGeometry relative="1" as="geometry">
            <mxPoint x="1950" y="1420" as="targetPoint" />
          </mxGeometry>
        </mxCell>
        <mxCell id="MDlEpgOIPJXAIxuBi_LA-56" value="arr[i]" style="shape=parallelogram;perimeter=parallelogramPerimeter;whiteSpace=wrap;html=1;fixedSize=1;" vertex="1" parent="1">
          <mxGeometry x="1200" y="1390" width="110" height="60" as="geometry" />
        </mxCell>
        <mxCell id="MDlEpgOIPJXAIxuBi_LA-57" value="" style="edgeStyle=orthogonalEdgeStyle;rounded=0;orthogonalLoop=1;jettySize=auto;html=1;" edge="1" parent="1" source="MDlEpgOIPJXAIxuBi_LA-61" target="MDlEpgOIPJXAIxuBi_LA-63">
          <mxGeometry relative="1" as="geometry" />
        </mxCell>
        <mxCell id="MDlEpgOIPJXAIxuBi_LA-58" value="true" style="edgeLabel;html=1;align=center;verticalAlign=middle;resizable=0;points=[];" vertex="1" connectable="0" parent="MDlEpgOIPJXAIxuBi_LA-57">
          <mxGeometry x="-0.0909" relative="1" as="geometry">
            <mxPoint y="-1" as="offset" />
          </mxGeometry>
        </mxCell>
        <mxCell id="MDlEpgOIPJXAIxuBi_LA-59" value="" style="edgeStyle=orthogonalEdgeStyle;rounded=0;orthogonalLoop=1;jettySize=auto;html=1;" edge="1" parent="1" source="MDlEpgOIPJXAIxuBi_LA-61" target="MDlEpgOIPJXAIxuBi_LA-88">
          <mxGeometry relative="1" as="geometry" />
        </mxCell>
        <mxCell id="MDlEpgOIPJXAIxuBi_LA-60" value="false" style="edgeLabel;html=1;align=center;verticalAlign=middle;resizable=0;points=[];" vertex="1" connectable="0" parent="MDlEpgOIPJXAIxuBi_LA-59">
          <mxGeometry x="-0.0071" y="-2" relative="1" as="geometry">
            <mxPoint x="-1" y="-1" as="offset" />
          </mxGeometry>
        </mxCell>
        <mxCell id="MDlEpgOIPJXAIxuBi_LA-61" value="case==3" style="rhombus;whiteSpace=wrap;html=1;" vertex="1" parent="1">
          <mxGeometry x="480" y="1660" width="80" height="80" as="geometry" />
        </mxCell>
        <mxCell id="MDlEpgOIPJXAIxuBi_LA-62" style="edgeStyle=orthogonalEdgeStyle;rounded=0;orthogonalLoop=1;jettySize=auto;html=1;" edge="1" parent="1" source="MDlEpgOIPJXAIxuBi_LA-63" target="MDlEpgOIPJXAIxuBi_LA-65">
          <mxGeometry relative="1" as="geometry">
            <mxPoint x="940" y="1700" as="targetPoint" />
          </mxGeometry>
        </mxCell>
        <mxCell id="MDlEpgOIPJXAIxuBi_LA-63" value="end=n&lt;br&gt;start=0" style="rounded=0;whiteSpace=wrap;html=1;" vertex="1" parent="1">
          <mxGeometry x="670" y="1670" width="120" height="60" as="geometry" />
        </mxCell>
        <mxCell id="MDlEpgOIPJXAIxuBi_LA-64" value="" style="edgeStyle=orthogonalEdgeStyle;rounded=0;orthogonalLoop=1;jettySize=auto;html=1;" edge="1" parent="1" source="MDlEpgOIPJXAIxuBi_LA-65" target="MDlEpgOIPJXAIxuBi_LA-67">
          <mxGeometry relative="1" as="geometry" />
        </mxCell>
        <mxCell id="MDlEpgOIPJXAIxuBi_LA-65" value="start&amp;lt;=end" style="rhombus;whiteSpace=wrap;html=1;" vertex="1" parent="1">
          <mxGeometry x="890" y="1660" width="80" height="80" as="geometry" />
        </mxCell>
        <mxCell id="MDlEpgOIPJXAIxuBi_LA-66" value="" style="edgeStyle=orthogonalEdgeStyle;rounded=0;orthogonalLoop=1;jettySize=auto;html=1;" edge="1" parent="1" source="MDlEpgOIPJXAIxuBi_LA-67" target="MDlEpgOIPJXAIxuBi_LA-72">
          <mxGeometry relative="1" as="geometry" />
        </mxCell>
        <mxCell id="MDlEpgOIPJXAIxuBi_LA-67" value="mid=(start+end)/2" style="rounded=0;whiteSpace=wrap;html=1;" vertex="1" parent="1">
          <mxGeometry x="1030" y="1670" width="120" height="60" as="geometry" />
        </mxCell>
        <mxCell id="MDlEpgOIPJXAIxuBi_LA-68" value="" style="edgeStyle=orthogonalEdgeStyle;rounded=0;orthogonalLoop=1;jettySize=auto;html=1;" edge="1" parent="1" source="MDlEpgOIPJXAIxuBi_LA-72" target="MDlEpgOIPJXAIxuBi_LA-77">
          <mxGeometry relative="1" as="geometry" />
        </mxCell>
        <mxCell id="MDlEpgOIPJXAIxuBi_LA-69" value="false" style="edgeLabel;html=1;align=center;verticalAlign=middle;resizable=0;points=[];" vertex="1" connectable="0" parent="MDlEpgOIPJXAIxuBi_LA-68">
          <mxGeometry x="-0.2778" y="1" relative="1" as="geometry">
            <mxPoint x="1" as="offset" />
          </mxGeometry>
        </mxCell>
        <mxCell id="MDlEpgOIPJXAIxuBi_LA-70" style="edgeStyle=orthogonalEdgeStyle;rounded=0;orthogonalLoop=1;jettySize=auto;html=1;entryX=0;entryY=0.25;entryDx=0;entryDy=0;" edge="1" parent="1">
          <mxGeometry relative="1" as="geometry">
            <mxPoint x="1290" y="1740" as="sourcePoint" />
            <mxPoint x="1583.8461538461538" y="1798.4615384615386" as="targetPoint" />
            <Array as="points">
              <mxPoint x="1290" y="1799" />
            </Array>
          </mxGeometry>
        </mxCell>
        <mxCell id="MDlEpgOIPJXAIxuBi_LA-71" value="true" style="edgeLabel;html=1;align=center;verticalAlign=middle;resizable=0;points=[];" vertex="1" connectable="0" parent="MDlEpgOIPJXAIxuBi_LA-70">
          <mxGeometry x="-0.1259" y="-4" relative="1" as="geometry">
            <mxPoint as="offset" />
          </mxGeometry>
        </mxCell>
        <mxCell id="MDlEpgOIPJXAIxuBi_LA-72" value="arr[i]==find" style="rhombus;whiteSpace=wrap;html=1;rounded=0;" vertex="1" parent="1">
          <mxGeometry x="1250" y="1660" width="80" height="80" as="geometry" />
        </mxCell>
        <mxCell id="MDlEpgOIPJXAIxuBi_LA-73" value="false" style="text;html=1;align=center;verticalAlign=middle;resizable=0;points=[];autosize=1;strokeColor=none;fillColor=none;" vertex="1" parent="1">
          <mxGeometry x="925" y="1278" width="50" height="30" as="geometry" />
        </mxCell>
        <mxCell id="MDlEpgOIPJXAIxuBi_LA-74" value="" style="edgeStyle=orthogonalEdgeStyle;rounded=0;orthogonalLoop=1;jettySize=auto;html=1;" edge="1" parent="1" source="MDlEpgOIPJXAIxuBi_LA-77" target="MDlEpgOIPJXAIxuBi_LA-79">
          <mxGeometry relative="1" as="geometry" />
        </mxCell>
        <mxCell id="MDlEpgOIPJXAIxuBi_LA-75" value="true" style="edgeLabel;html=1;align=center;verticalAlign=middle;resizable=0;points=[];" vertex="1" connectable="0" parent="MDlEpgOIPJXAIxuBi_LA-74">
          <mxGeometry x="0.025" relative="1" as="geometry">
            <mxPoint x="1" y="1" as="offset" />
          </mxGeometry>
        </mxCell>
        <mxCell id="MDlEpgOIPJXAIxuBi_LA-76" value="false" style="edgeStyle=orthogonalEdgeStyle;rounded=0;orthogonalLoop=1;jettySize=auto;html=1;" edge="1" parent="1" source="MDlEpgOIPJXAIxuBi_LA-77" target="MDlEpgOIPJXAIxuBi_LA-81">
          <mxGeometry relative="1" as="geometry" />
        </mxCell>
        <mxCell id="MDlEpgOIPJXAIxuBi_LA-77" value="arr[mid]&amp;lt;find" style="rhombus;whiteSpace=wrap;html=1;" vertex="1" parent="1">
          <mxGeometry x="1420" y="1660" width="80" height="80" as="geometry" />
        </mxCell>
        <mxCell id="MDlEpgOIPJXAIxuBi_LA-78" style="edgeStyle=orthogonalEdgeStyle;rounded=0;orthogonalLoop=1;jettySize=auto;html=1;" edge="1" parent="1" source="MDlEpgOIPJXAIxuBi_LA-79">
          <mxGeometry relative="1" as="geometry">
            <mxPoint x="860" y="1700" as="targetPoint" />
          </mxGeometry>
        </mxCell>
        <mxCell id="MDlEpgOIPJXAIxuBi_LA-79" value="start=mid+1" style="rounded=0;whiteSpace=wrap;html=1;" vertex="1" parent="1">
          <mxGeometry x="1400" y="1560" width="120" height="60" as="geometry" />
        </mxCell>
        <mxCell id="MDlEpgOIPJXAIxuBi_LA-80" style="edgeStyle=orthogonalEdgeStyle;rounded=0;orthogonalLoop=1;jettySize=auto;html=1;" edge="1" parent="1" source="MDlEpgOIPJXAIxuBi_LA-81">
          <mxGeometry relative="1" as="geometry">
            <mxPoint x="840" y="1700" as="targetPoint" />
            <Array as="points">
              <mxPoint x="1630" y="1490" />
              <mxPoint x="840" y="1490" />
            </Array>
          </mxGeometry>
        </mxCell>
        <mxCell id="MDlEpgOIPJXAIxuBi_LA-81" value="end=mid-1" style="rounded=0;whiteSpace=wrap;html=1;" vertex="1" parent="1">
          <mxGeometry x="1570" y="1670" width="120" height="60" as="geometry" />
        </mxCell>
        <mxCell id="MDlEpgOIPJXAIxuBi_LA-82" style="edgeStyle=orthogonalEdgeStyle;rounded=0;orthogonalLoop=1;jettySize=auto;html=1;exitX=1;exitY=0.5;exitDx=0;exitDy=0;" edge="1" parent="1" source="MDlEpgOIPJXAIxuBi_LA-83">
          <mxGeometry relative="1" as="geometry">
            <mxPoint x="360" y="1020" as="targetPoint" />
            <Array as="points">
              <mxPoint x="1940" y="1810" />
              <mxPoint x="1940" y="1010" />
              <mxPoint x="361" y="1010" />
            </Array>
          </mxGeometry>
        </mxCell>
        <mxCell id="MDlEpgOIPJXAIxuBi_LA-83" value="arr[mid]" style="shape=parallelogram;perimeter=parallelogramPerimeter;whiteSpace=wrap;html=1;fixedSize=1;" vertex="1" parent="1">
          <mxGeometry x="1570" y="1780" width="120" height="60" as="geometry" />
        </mxCell>
        <mxCell id="MDlEpgOIPJXAIxuBi_LA-84" style="edgeStyle=orthogonalEdgeStyle;rounded=0;orthogonalLoop=1;jettySize=auto;html=1;entryX=0;entryY=0.5;entryDx=0;entryDy=0;" edge="1" parent="1" source="MDlEpgOIPJXAIxuBi_LA-88" target="MDlEpgOIPJXAIxuBi_LA-90">
          <mxGeometry relative="1" as="geometry" />
        </mxCell>
        <mxCell id="MDlEpgOIPJXAIxuBi_LA-85" value="true" style="edgeLabel;html=1;align=center;verticalAlign=middle;resizable=0;points=[];" vertex="1" connectable="0" parent="MDlEpgOIPJXAIxuBi_LA-84">
          <mxGeometry x="-0.2105" y="8" relative="1" as="geometry">
            <mxPoint as="offset" />
          </mxGeometry>
        </mxCell>
        <mxCell id="MDlEpgOIPJXAIxuBi_LA-86" value="" style="edgeStyle=orthogonalEdgeStyle;rounded=0;orthogonalLoop=1;jettySize=auto;html=1;" edge="1" parent="1" source="MDlEpgOIPJXAIxuBi_LA-88">
          <mxGeometry relative="1" as="geometry">
            <mxPoint x="520" y="2040" as="targetPoint" />
          </mxGeometry>
        </mxCell>
        <mxCell id="MDlEpgOIPJXAIxuBi_LA-87" value="false" style="edgeLabel;html=1;align=center;verticalAlign=middle;resizable=0;points=[];" vertex="1" connectable="0" parent="MDlEpgOIPJXAIxuBi_LA-86">
          <mxGeometry x="-0.075" relative="1" as="geometry">
            <mxPoint y="-1" as="offset" />
          </mxGeometry>
        </mxCell>
        <mxCell id="MDlEpgOIPJXAIxuBi_LA-88" value="case== 4" style="rhombus;whiteSpace=wrap;html=1;" vertex="1" parent="1">
          <mxGeometry x="480" y="1880" width="80" height="80" as="geometry" />
        </mxCell>
        <mxCell id="MDlEpgOIPJXAIxuBi_LA-89" style="edgeStyle=orthogonalEdgeStyle;rounded=0;orthogonalLoop=1;jettySize=auto;html=1;" edge="1" parent="1" source="MDlEpgOIPJXAIxuBi_LA-90" target="MDlEpgOIPJXAIxuBi_LA-91">
          <mxGeometry relative="1" as="geometry" />
        </mxCell>
        <mxCell id="MDlEpgOIPJXAIxuBi_LA-90" value="end" style="shape=parallelogram;perimeter=parallelogramPerimeter;whiteSpace=wrap;html=1;fixedSize=1;" vertex="1" parent="1">
          <mxGeometry x="740" y="1890" width="120" height="60" as="geometry" />
        </mxCell>
        <mxCell id="MDlEpgOIPJXAIxuBi_LA-91" value="end" style="ellipse;whiteSpace=wrap;html=1;" vertex="1" parent="1">
          <mxGeometry x="1130" y="1880" width="120" height="80" as="geometry" />
        </mxCell>
        <mxCell id="MDlEpgOIPJXAIxuBi_LA-92" style="edgeStyle=orthogonalEdgeStyle;rounded=0;orthogonalLoop=1;jettySize=auto;html=1;" edge="1" parent="1">
          <mxGeometry relative="1" as="geometry">
            <mxPoint x="1950" y="1810" as="targetPoint" />
            <mxPoint x="570" y="2075" as="sourcePoint" />
            <Array as="points">
              <mxPoint x="1620" y="2075" />
              <mxPoint x="1620" y="2080" />
              <mxPoint x="1940" y="2080" />
              <mxPoint x="1940" y="1810" />
            </Array>
          </mxGeometry>
        </mxCell>
        <mxCell id="MDlEpgOIPJXAIxuBi_LA-93" value="vui long nhap 1-4" style="shape=parallelogram;perimeter=parallelogramPerimeter;whiteSpace=wrap;html=1;fixedSize=1;" vertex="1" parent="1">
          <mxGeometry x="470" y="2040" width="120" height="60" as="geometry" />
        </mxCell>
      </root>
    </mxGraphModel>
  </diagram>
</mxfile>
